<svg width="36" height="37" viewBox="0 0 36 37" fill="none" xmlns="http://www.w3.org/2000/svg">
<rect y="0.129395" width="36" height="36" rx="6" fill="white"/>
<path d="M21.02 9.1394C20.18 8.4994 19.14 8.12939 18 8.12939C15.24 8.12939 13 10.3694 13 13.1294C13 15.8894 15.24 18.1294 18 18.1294C20.76 18.1294 23 15.8894 23 13.1294" stroke="#684735" stroke-width="1.5" stroke-linecap="round" stroke-linejoin="round"/>
<path d="M9.41003 28.1294C9.41003 24.2594 13.26 21.1294 18 21.1294C18.96 21.1294 19.89 21.2594 20.76 21.4994" stroke="#684735" stroke-width="1.5" stroke-linecap="round" stroke-linejoin="round"/>
<path d="M28 24.1294C28 24.4494 27.96 24.7594 27.88 25.0594C27.79 25.4594 27.63 25.8494 27.42 26.1894C26.73 27.3494 25.46 28.1294 24 28.1294C22.97 28.1294 22.04 27.7394 21.34 27.0994C21.04 26.8394 20.78 26.5294 20.58 26.1894C20.21 25.5894 20 24.8794 20 24.1294C20 23.0494 20.43 22.0594 21.13 21.3394C21.86 20.5894 22.88 20.1294 24 20.1294C25.18 20.1294 26.25 20.6394 26.97 21.4594C27.61 22.1694 28 23.1094 28 24.1294Z" stroke="#684735" stroke-width="1.5" stroke-miterlimit="10" stroke-linecap="round" stroke-linejoin="round"/>
<path d="M25.49 24.1094H22.51" stroke="#684735" stroke-width="1.5" stroke-miterlimit="10" stroke-linecap="round" stroke-linejoin="round"/>
<path d="M24 22.6494V25.6394" stroke="#684735" stroke-width="1.5" stroke-miterlimit="10" stroke-linecap="round" stroke-linejoin="round"/>
</svg>
