<svg width="125" height="151" viewBox="0 0 125 151" fill="none" xmlns="http://www.w3.org/2000/svg">
<path d="M79.2662 70.4628C78.016 69.2039 75.9893 69.2042 74.7391 70.4631L68.8094 76.4335C66.8651 75.344 64.6284 74.7229 62.2499 74.7229C54.7886 74.7229 48.7183 80.8345 48.7183 88.3468C48.7183 95.8594 54.7886 101.971 62.2499 101.971C69.7113 101.971 75.7815 95.8594 75.7815 88.3468C75.7815 85.5618 74.9472 82.9694 73.5169 80.8096L79.2668 75.0202C80.5167 73.7616 80.5167 71.7211 79.2662 70.4628ZM62.2499 95.5257C58.3189 95.5257 55.1206 92.3054 55.1206 88.3468C55.1206 84.3885 58.3189 81.1682 62.2499 81.1682C66.1809 81.1682 69.3792 84.3885 69.3792 88.3468C69.3792 92.3054 66.1809 95.5257 62.2499 95.5257Z" fill="#FEAF48"/>
<path d="M62.0011 42.4011C56.9247 42.4011 51.9404 43.244 47.182 44.9083L47.1291 44.9271C29.0273 51.2851 16.8655 68.5333 16.8655 87.847C16.8655 112.906 37.1132 133.293 62.0011 133.293C68.7661 133.293 75.2732 131.822 81.3414 128.92C81.3487 128.917 81.3563 128.913 81.3639 128.91C88.9594 125.273 95.3879 119.582 99.9568 112.45C104.654 105.117 107.137 96.6097 107.137 87.8467C107.136 62.7882 86.8888 42.4011 62.0011 42.4011ZM78.5963 123.098C78.5887 123.101 78.5812 123.105 78.5736 123.108C73.3764 125.59 67.8005 126.848 62.0008 126.848C40.6432 126.848 23.2675 109.352 23.2675 87.8473C23.2675 71.2717 33.7042 56.4692 49.2381 51.0126C49.2523 51.0074 49.2733 51.0003 49.2875 50.9948C53.3638 49.5692 57.6411 48.8464 62.0008 48.8464C83.3585 48.8464 100.734 66.3422 100.734 87.847C100.734 102.829 92.0444 116.666 78.5963 123.098Z" fill="#684735"/>
<path d="M106.966 45.458L112.264 40.1233L115.54 43.4215C116.165 44.0508 116.984 44.3658 117.803 44.3658C118.623 44.3658 119.442 44.0514 120.067 43.4221C121.317 42.1635 121.317 40.123 120.067 38.8644L108.988 27.709C107.738 26.4501 105.711 26.4501 104.461 27.7084C103.211 28.967 103.21 31.0076 104.461 32.2662L107.737 35.5653L102.315 41.0248C92.279 32.3974 79.4751 26.9429 65.4511 26.2187V21.6478H71.1114C76.8866 21.6478 81.5853 16.9175 81.5853 11.1021C81.585 5.28814 76.8866 0.557861 71.1114 0.557861H53.3885C47.6133 0.557861 42.9146 5.28813 42.9146 11.1036C42.9146 16.9178 47.6133 21.6478 53.3885 21.6478H59.0488V26.2187C45.0247 26.9429 32.2209 32.3974 22.1846 41.0248L16.7627 35.5653L20.0393 32.2662C21.2892 31.0076 21.2892 28.967 20.039 27.7084C18.7888 26.4501 16.7619 26.4501 15.5119 27.709L4.43298 38.8644C3.18307 40.123 3.18307 42.1635 4.43327 43.4221C5.05837 44.0511 5.87729 44.3658 6.6965 44.3658C7.51571 44.3658 8.33521 44.0511 8.96031 43.4215L12.236 40.1233L17.5342 45.458C6.96278 56.6268 0.464111 71.737 0.464111 88.3468C0.46382 122.65 28.181 150.558 62.2499 150.558C96.3188 150.558 124.036 122.65 124.036 88.3468C124.036 71.737 117.537 56.6268 106.966 45.458ZM49.3172 11.1021C49.3172 8.84185 51.1436 7.00317 53.3888 7.00317H71.1114C73.3563 7.00317 75.183 8.84185 75.183 11.1036C75.183 13.3638 73.3565 15.2025 71.1114 15.2025H53.3885C51.1436 15.2025 49.3172 13.3638 49.3172 11.1021ZM62.2499 144.113C31.7113 144.113 6.86617 119.096 6.86617 88.3468C6.86617 57.5977 31.7113 32.5817 62.2499 32.5817C92.7885 32.5817 117.634 57.598 117.634 88.3471C117.634 119.096 92.7885 144.113 62.2499 144.113Z" fill="#684735"/>
<path d="M62.2499 61.9878C60.482 61.9878 59.0487 60.5449 59.0487 58.7651V57.5054C59.0487 55.7256 60.482 54.2827 62.2499 54.2827C64.0178 54.2827 65.451 55.7256 65.451 57.5054V58.7651C65.451 60.5449 64.0178 61.9878 62.2499 61.9878Z" fill="#FEAF48"/>
<path d="M62.2499 120.91C60.482 120.91 59.0487 119.467 59.0487 117.687V116.427C59.0487 114.648 60.482 113.205 62.2499 113.205C64.0178 113.205 65.451 114.648 65.451 116.427V117.687C65.451 119.467 64.0178 120.91 62.2499 120.91Z" fill="#FEAF48"/>
<path d="M92.1351 90.8188H90.884C89.1161 90.8188 87.6829 89.376 87.6829 87.5962C87.6829 85.8164 89.1161 84.3735 90.884 84.3735H92.1351C93.903 84.3735 95.3363 85.8164 95.3363 87.5962C95.3363 89.376 93.903 90.8188 92.1351 90.8188Z" fill="#FEAF48"/>
<path d="M33.6157 90.8188H32.3646C30.5967 90.8188 29.1635 89.376 29.1635 87.5962C29.1635 85.8164 30.5967 84.3735 32.3646 84.3735H33.6157C35.3836 84.3735 36.8169 85.8164 36.8169 87.5962C36.8169 89.376 35.3836 90.8188 33.6157 90.8188Z" fill="#FEAF48"/>
</svg>
