<svg width="23" height="23" viewBox="0 0 23 23" fill="none" xmlns="http://www.w3.org/2000/svg">
<path d="M20.8245 11.3897C20.8245 16.632 16.5746 20.8867 11.3275 20.8867C6.08046 20.8867 1.83056 16.632 1.83056 11.3897C1.83056 6.1426 6.08046 1.8927 11.3275 1.8927C16.5746 1.8927 20.8245 6.1426 20.8245 11.3897Z" fill="#36383B"/>
<path d="M15.779 8.9866C15.7272 9.01683 14.4935 9.65484 14.4935 11.0695C14.5516 12.6828 16.0503 13.2485 16.076 13.2485C16.0503 13.2788 15.8498 14.0192 15.2557 14.7955C14.7842 15.4641 14.2609 16.1382 13.4662 16.1382C12.7104 16.1382 12.439 15.6926 11.5668 15.6926C10.6302 15.6926 10.3652 16.1382 9.64806 16.1382C8.85342 16.1382 8.29135 15.428 7.79417 14.7656C7.14825 13.8987 6.59925 12.5383 6.57987 11.232C6.5668 10.5398 6.70922 9.8594 7.07073 9.28146C7.58097 8.47461 8.49191 7.9269 9.48669 7.90884C10.2489 7.88489 10.9273 8.39648 11.3924 8.39648C11.8382 8.39648 12.6716 7.90884 13.6146 7.90884C14.0216 7.90924 15.1069 8.02349 15.779 8.9866ZM11.3279 7.77064C11.1923 7.13852 11.5668 6.50639 11.9157 6.10317C12.3615 5.61553 13.0656 5.28455 13.6727 5.28455C13.7115 5.91667 13.4658 6.53662 13.0268 6.98814C12.6328 7.47578 11.9545 7.84288 11.3279 7.77064Z" fill="white"/>
</svg>
