<svg width="27" height="26" viewBox="0 0 27 26" fill="none" xmlns="http://www.w3.org/2000/svg">
<path d="M18.6295 3.25354C18.5039 3.12766 18.3548 3.0278 18.1905 2.95966C18.0263 2.89152 17.8503 2.85645 17.6725 2.85645C17.4947 2.85645 17.3187 2.89152 17.1545 2.95966C16.9903 3.0278 16.8411 3.12766 16.7156 3.25354L7.72995 12.2391C7.62971 12.3392 7.55018 12.458 7.49592 12.5888C7.44166 12.7196 7.41373 12.8598 7.41373 13.0015C7.41373 13.1431 7.44166 13.2833 7.49592 13.4141C7.55018 13.5449 7.62971 13.6637 7.72995 13.7638L16.7156 22.7494C17.2454 23.2792 18.0996 23.2792 18.6295 22.7494C19.1593 22.2196 19.1593 21.3653 18.6295 20.8355L10.8008 12.9961L18.6403 5.15663C19.1593 4.6376 19.1593 3.77256 18.6295 3.25354Z" fill="#684735" stroke="#684735" stroke-width="0.2"/>
</svg>
