<svg width="36" height="37" viewBox="0 0 36 37" fill="none" xmlns="http://www.w3.org/2000/svg">
<rect y="0.129395" width="36" height="36" rx="6" fill="white"/>
<path d="M7 28.1294H29" stroke="#684735" stroke-width="1.5" stroke-miterlimit="10" stroke-linecap="round" stroke-linejoin="round"/>
<path d="M25.78 28.1392V23.6792" stroke="#684735" stroke-width="1.5" stroke-miterlimit="10" stroke-linecap="round" stroke-linejoin="round"/>
<path d="M25.8 17.0195C24.58 17.0195 23.6 17.9995 23.6 19.2195V21.4895C23.6 22.7095 24.58 23.6895 25.8 23.6895C27.02 23.6895 28 22.7095 28 21.4895V19.2195C28 17.9995 27.02 17.0195 25.8 17.0195Z" stroke="#684735" stroke-width="1.5" stroke-miterlimit="10" stroke-linecap="round" stroke-linejoin="round"/>
<path d="M8.09998 12.1494C8.09998 10.1394 9.10003 9.12939 11.09 9.12939H17.32C19.31 9.12939 20.3 10.1394 20.3 12.1494V28.1294" stroke="#684735" stroke-width="1.5" stroke-miterlimit="10" stroke-linecap="round" stroke-linejoin="round"/>
<path d="M8.09998 28.1296V16.1396" stroke="#684735" stroke-width="1.5" stroke-miterlimit="10" stroke-linecap="round" stroke-linejoin="round"/>
<path d="M11.8 14.3794H16.75" stroke="#684735" stroke-width="1.5" stroke-miterlimit="10" stroke-linecap="round" stroke-linejoin="round"/>
<path d="M11.8 18.1294H16.75" stroke="#684735" stroke-width="1.5" stroke-miterlimit="10" stroke-linecap="round" stroke-linejoin="round"/>
<path d="M14.25 28.1294V24.3794" stroke="#684735" stroke-width="1.5" stroke-miterlimit="10" stroke-linecap="round" stroke-linejoin="round"/>
</svg>
