<svg width="24" height="25" viewBox="0 0 24 25" fill="none" xmlns="http://www.w3.org/2000/svg">
<path d="M1.00003 22.6162H23" stroke="#684735" stroke-width="1.5" stroke-miterlimit="10" stroke-linecap="round" stroke-linejoin="round"/>
<path d="M19.7801 22.626V18.166" stroke="#684735" stroke-width="1.5" stroke-miterlimit="10" stroke-linecap="round" stroke-linejoin="round"/>
<path d="M19.8 11.5059C18.58 11.5059 17.6 12.4859 17.6 13.7059V15.9758C17.6 17.1958 18.58 18.1758 19.8 18.1758C21.02 18.1758 22 17.1958 22 15.9758V13.7059C22 12.4859 21.02 11.5059 19.8 11.5059Z" stroke="#684735" stroke-width="1.5" stroke-miterlimit="10" stroke-linecap="round" stroke-linejoin="round"/>
<path d="M2.10001 6.63623C2.10001 4.62623 3.10006 3.61621 5.09006 3.61621H11.32C13.31 3.61621 14.3 4.62623 14.3 6.63623V22.6162" stroke="#684735" stroke-width="1.5" stroke-miterlimit="10" stroke-linecap="round" stroke-linejoin="round"/>
<path d="M2.10001 22.616V10.626" stroke="#684735" stroke-width="1.5" stroke-miterlimit="10" stroke-linecap="round" stroke-linejoin="round"/>
<path d="M5.80002 8.86621H10.75" stroke="#684735" stroke-width="1.5" stroke-miterlimit="10" stroke-linecap="round" stroke-linejoin="round"/>
<path d="M5.80002 12.6162H10.75" stroke="#684735" stroke-width="1.5" stroke-miterlimit="10" stroke-linecap="round" stroke-linejoin="round"/>
<path d="M8.25003 22.6162V18.8662" stroke="#684735" stroke-width="1.5" stroke-miterlimit="10" stroke-linecap="round" stroke-linejoin="round"/>
</svg>
