<svg width="24" height="25" viewBox="0 0 24 25" fill="none" xmlns="http://www.w3.org/2000/svg">
<path d="M9.39003 6.62621C9.57003 6.87621 9.70003 7.10621 9.79003 7.32621C9.88003 7.53621 9.93003 7.74621 9.93003 7.93621C9.93003 8.17621 9.86003 8.41621 9.72003 8.64621C9.59003 8.87621 9.40003 9.11621 9.16003 9.35621L8.40003 10.1462C8.29003 10.2562 8.24003 10.3862 8.24003 10.5462C8.24003 10.6262 8.25003 10.6962 8.27003 10.7762C8.30003 10.8562 8.33003 10.9162 8.35003 10.9762C8.53003 11.3062 8.84003 11.7362 9.28003 12.2562C9.73003 12.7762 10.21 13.3062 10.73 13.8362C11.27 14.3662 11.79 14.8562 12.32 15.3062C12.84 15.7462 13.27 16.0462 13.61 16.2262C13.66 16.2462 13.72 16.2762 13.79 16.3062C13.87 16.3362 13.95 16.3462 14.04 16.3462C14.21 16.3462 14.34 16.2862 14.45 16.1762L15.21 15.4262C15.46 15.1762 15.7 14.9862 15.93 14.8662C16.16 14.7262 16.39 14.6562 16.64 14.6562C16.83 14.6562 17.03 14.6962 17.25 14.7862C17.47 14.8762 17.7 15.0062 17.95 15.1762L21.26 17.5262C21.52 17.7062 21.7 17.9162 21.81 18.1662C21.91 18.4162 21.97 18.6662 21.97 18.9462C21.97 19.3062 21.89 19.6762 21.72 20.0362C21.55 20.3962 21.33 20.7362 21.04 21.0562C20.55 21.5962 20.01 21.9862 19.4 22.2362C18.8 22.4862 18.15 22.6162 17.45 22.6162C16.43 22.6162 15.34 22.3762 14.19 21.8862C13.04 21.3962 11.89 20.7362 10.75 19.9062C9.60003 19.0662 8.51003 18.1362 7.47003 17.1062C6.44003 16.0662 5.51003 14.9762 4.68003 13.8362C3.86003 12.6962 3.20003 11.5562 2.72003 10.4262C2.24003 9.28621 2.00003 8.19621 2.00003 7.15621C2.00003 6.47621 2.12003 5.82621 2.36003 5.22621C2.60003 4.61621 2.98003 4.05621 3.51003 3.55621C4.15003 2.92621 4.85003 2.61621 5.59003 2.61621C5.87003 2.61621 6.15003 2.67621 6.40003 2.79621C6.66003 2.91621 6.89003 3.09621 7.07003 3.35621" stroke="#684735" stroke-width="1.5" stroke-miterlimit="10" stroke-linecap="round" stroke-linejoin="round"/>
<path d="M18.5 9.61621C18.5 9.01621 18.03 8.09621 17.33 7.34621C16.69 6.65621 15.84 6.11621 15 6.11621" stroke="#684735" stroke-width="1.5" stroke-linecap="round" stroke-linejoin="round"/>
<path d="M17.01 2.90621C16.37 2.71621 15.7 2.61621 15 2.61621" stroke="#684735" stroke-width="1.5" stroke-linecap="round" stroke-linejoin="round"/>
<path d="M22 9.61574C22 7.24574 20.82 5.14574 19.02 3.88574" stroke="#684735" stroke-width="1.5" stroke-linecap="round" stroke-linejoin="round"/>
</svg>
