<svg width="25" height="23" viewBox="0 0 25 23" fill="none" xmlns="http://www.w3.org/2000/svg">
<path d="M19.8018 9.02931C19.8491 9.15658 19.9727 9.23658 20.1 9.23658C20.1364 9.23658 20.1764 9.22931 20.2127 9.2184L21.2818 8.82204C21.4455 8.76022 21.5291 8.5784 21.4673 8.41113C21.4055 8.24749 21.2236 8.16386 21.0564 8.22567L19.9873 8.62204C19.8236 8.68386 19.74 8.86567 19.8018 9.02931Z" fill="#0D0F13"/>
<path d="M19.1 7.98205C19.18 7.98205 19.2636 7.95296 19.3254 7.8875L20.1109 7.10205C20.2345 6.97841 20.2345 6.77477 20.1109 6.65114C19.9873 6.5275 19.7836 6.5275 19.66 6.65114L18.8745 7.43659C18.7509 7.56023 18.7509 7.76387 18.8745 7.8875C18.94 7.95296 19.02 7.98205 19.1 7.98205Z" fill="#0D0F13"/>
<path d="M17.7364 6.96386C17.7727 6.9784 17.8091 6.98204 17.8455 6.98204C17.9764 6.98204 18.0964 6.90204 18.1436 6.77477L18.54 5.70568C18.6018 5.54204 18.5182 5.35658 18.3546 5.29477C18.1909 5.23295 18.0055 5.31658 17.9436 5.48022L17.5473 6.54931C17.4891 6.72022 17.5727 6.90568 17.7364 6.96386Z" fill="#0D0F13"/>
<path d="M22.1872 10.4002H18.14L17.3909 8.90932C17.3363 8.80386 17.2272 8.73477 17.1072 8.73477H13.2054C13.0854 8.73477 12.9763 8.80386 12.9218 8.90932L12.1727 10.4002H8.12178C7.0636 10.4002 6.20178 11.262 6.20178 12.3202V20.3857C6.20178 21.4439 7.0636 22.3057 8.12178 22.3057H22.1836C23.2418 22.3057 24.1036 21.4439 24.1036 20.3857V12.3166C24.1036 11.2584 23.2454 10.4002 22.1872 10.4002ZM23.4672 20.382C23.4672 21.0911 22.8927 21.6657 22.1836 21.6657H8.12178C7.41633 21.6657 6.83815 21.0911 6.83815 20.382V12.3166C6.83815 11.6075 7.41269 11.033 8.12178 11.033H12.3654C12.4854 11.033 12.5945 10.9639 12.6491 10.8584L13.3981 9.3675H16.9036L17.6527 10.8584C17.7072 10.9639 17.8163 11.033 17.9363 11.033H22.18C22.8891 11.033 23.4636 11.6075 23.4636 12.3166V20.382H23.4672Z" fill="#0D0F13"/>
<path d="M15.1546 11.8002C12.6455 11.8002 10.6055 13.8402 10.6055 16.3493C10.6055 18.8584 12.6455 20.8984 15.1546 20.8984C17.6637 20.8984 19.7037 18.8584 19.7037 16.3493C19.7037 13.8402 17.6637 11.8002 15.1546 11.8002ZM15.1546 20.2621C12.9982 20.2621 11.2418 18.5057 11.2418 16.3493C11.2418 14.193 12.9982 12.4366 15.1546 12.4366C17.3109 12.4366 19.0673 14.193 19.0673 16.3493C19.0673 18.5057 17.3109 20.2621 15.1546 20.2621Z" fill="#0D0F13"/>
<path d="M15.1545 13.2548C13.4491 13.2548 12.06 14.6439 12.06 16.3493C12.06 18.0548 13.4491 19.4439 15.1545 19.4439C16.86 19.4439 18.2491 18.0548 18.2491 16.3493C18.2491 14.6439 16.86 13.2548 15.1545 13.2548ZM15.1545 18.8075C13.7982 18.8075 12.6964 17.7057 12.6964 16.3493C12.6964 14.9929 13.7982 13.8911 15.1545 13.8911C16.5109 13.8911 17.6127 14.9929 17.6127 16.3493C17.6127 17.7057 16.5109 18.8075 15.1545 18.8075Z" fill="#0D0F13"/>
<path d="M15.1545 14.7093C14.98 14.7093 14.8345 14.8511 14.8345 15.0293C14.8345 15.2075 14.9764 15.3493 15.1545 15.3493C15.7073 15.3493 16.1582 15.8002 16.1582 16.3529C16.1582 16.5275 16.3 16.6729 16.4782 16.6729C16.6564 16.6729 16.7982 16.5311 16.7982 16.3529C16.7945 15.4438 16.06 14.7093 15.1545 14.7093Z" fill="#0D0F13"/>
<path d="M21.2491 11.8002C20.6309 11.8002 20.1291 12.3021 20.1291 12.9202C20.1291 13.5384 20.6309 14.0402 21.2491 14.0402C21.8673 14.0402 22.3691 13.5384 22.3691 12.9202C22.3691 12.3021 21.8673 11.8002 21.2491 11.8002ZM21.2491 13.4002C20.9836 13.4002 20.7655 13.1857 20.7655 12.9166C20.7655 12.6475 20.98 12.433 21.2491 12.433C21.5145 12.433 21.7327 12.6475 21.7327 12.9166C21.7327 13.1857 21.5145 13.4002 21.2491 13.4002Z" fill="#0D0F13"/>
<path d="M9.70365 9.61841C9.80183 9.61841 9.86365 9.61477 9.88183 9.61477C9.96546 9.61114 10.0418 9.57477 10.1 9.51295C10.1909 9.41841 12.2746 7.13477 11.2564 4.95659C10.8527 4.09114 9.82365 3.71659 8.95819 4.12023C8.46001 4.35295 8.11819 4.79659 8.00546 5.30932C7.54001 5.06568 6.97637 5.04386 6.47819 5.27659C6.06001 5.47295 5.74364 5.81841 5.58364 6.25114C5.42364 6.6875 5.44546 7.15659 5.64183 7.57477C6.5291 9.48023 9.0091 9.61841 9.70365 9.61841ZM6.18365 6.46932C6.28546 6.19659 6.48546 5.97477 6.74728 5.85477C6.89637 5.78568 7.05274 5.75295 7.2091 5.75295C7.53274 5.75295 7.8491 5.89841 8.06364 6.16386C8.15455 6.28023 8.31455 6.31659 8.44546 6.25477C8.58001 6.19295 8.65274 6.0475 8.62365 5.90568C8.52546 5.4075 8.77274 4.91295 9.22728 4.69841C9.77274 4.44386 10.4236 4.68023 10.6782 5.22568C11.4055 6.78932 10.0746 8.54932 9.71455 8.98204C9.15092 8.98204 6.94365 8.86932 6.21637 7.30568C6.09637 7.04023 6.08183 6.74204 6.18365 6.46932Z" fill="#0D0F13"/>
<path d="M1.61999 6.3675C1.51453 6.14204 1.50362 5.8875 1.58726 5.65477C1.6709 5.42204 1.84544 5.23295 2.0709 5.12749L11.3691 0.792949C11.8345 0.574767 12.3909 0.778404 12.6091 1.24386L15.6345 7.73113C15.7073 7.89113 15.8963 7.96022 16.0563 7.88386C16.2163 7.81113 16.2854 7.62204 16.2091 7.46204L13.1836 0.974767C12.82 0.192949 11.8818 -0.148869 11.1 0.214767L1.80181 4.55295C1.42362 4.73113 1.13272 5.04386 0.990897 5.43659C0.849079 5.82931 0.867261 6.25477 1.04181 6.63659L4.77999 14.6511C4.83453 14.7675 4.94726 14.8329 5.06726 14.8329C5.1109 14.8329 5.15817 14.822 5.20181 14.8039C5.36181 14.7311 5.4309 14.542 5.35453 14.382L1.61999 6.3675Z" fill="#0D0F13"/>
<path d="M3.10363 6.20748L11.5291 2.27657L14.0745 7.73112C14.1473 7.89112 14.3364 7.96021 14.4964 7.88385C14.6564 7.81112 14.7255 7.62203 14.6491 7.46203L11.9727 1.72021C11.9 1.56021 11.7109 1.49112 11.5509 1.56748L2.54363 5.76385C2.38727 5.84021 2.31818 6.0293 2.39091 6.1893L4.90727 11.5857C4.96181 11.702 5.07454 11.7675 5.19454 11.7675C5.23818 11.7675 5.28545 11.7566 5.32909 11.7384C5.48909 11.6657 5.55818 11.4766 5.48181 11.3166L3.10363 6.20748Z" fill="#0D0F13"/>
</svg>
