<svg width="25" height="25" viewBox="0 0 25 25" fill="none" xmlns="http://www.w3.org/2000/svg">
<path d="M22.2764 11.1238H2.27637C1.86637 11.1238 1.52637 10.7838 1.52637 10.3738C1.52637 9.96378 1.86637 9.62378 2.27637 9.62378H22.2764C22.6864 9.62378 23.0264 9.96378 23.0264 10.3738C23.0264 10.7838 22.6864 11.1238 22.2764 11.1238Z" fill="#C1B4AC"/>
<path d="M11.8266 21.6238H6.71661C2.73661 21.6238 1.5166 20.4238 1.5166 16.4838V8.26379C1.5166 5.11379 2.18659 3.36379 5.75659 3.15379C6.05659 3.14379 6.37661 3.13379 6.71661 3.13379H17.8266C21.8066 3.13379 23.0266 4.33379 23.0266 8.27379V12.6838C23.0266 13.0938 22.6866 13.4338 22.2766 13.4338C21.8666 13.4338 21.5266 13.0938 21.5266 12.6838V8.27379C21.5266 5.18379 20.9766 4.63379 17.8266 4.63379H6.71661C6.39661 4.63379 6.1066 4.64379 5.8266 4.65379C3.6566 4.78379 3.0166 5.27379 3.0166 8.27379V16.4938C3.0166 19.5838 3.56661 20.1338 6.71661 20.1338H11.8266C12.2366 20.1338 12.5766 20.4738 12.5766 20.8838C12.5766 21.2938 12.2466 21.6238 11.8266 21.6238Z" fill="#C1B4AC"/>
<path d="M10.2764 17.1238H6.27637C5.86637 17.1238 5.52637 16.7838 5.52637 16.3738C5.52637 15.9638 5.86637 15.6238 6.27637 15.6238H10.2764C10.6864 15.6238 11.0264 15.9638 11.0264 16.3738C11.0264 16.7838 10.6864 17.1238 10.2764 17.1238Z" fill="#C1B4AC"/>
<path d="M18.2764 23.1238C16.6164 23.1238 15.0564 22.2438 14.2164 20.8138C13.7664 20.0938 13.5264 19.2438 13.5264 18.3738C13.5264 15.7538 15.6564 13.6238 18.2764 13.6238C20.8964 13.6238 23.0264 15.7538 23.0264 18.3738C23.0264 19.2438 22.7864 20.0938 22.3364 20.8238C21.4964 22.2438 19.9364 23.1238 18.2764 23.1238ZM18.2764 15.1238C16.4864 15.1238 15.0264 16.5838 15.0264 18.3738C15.0264 18.9638 15.1863 19.5438 15.4963 20.0438C16.0763 21.0238 17.1464 21.6238 18.2764 21.6238C19.4064 21.6238 20.4764 21.0238 21.0564 20.0538C21.3664 19.5438 21.5264 18.9738 21.5264 18.3738C21.5264 16.5838 20.0664 15.1238 18.2764 15.1238Z" fill="#C1B4AC"/>
<path d="M17.7063 20.1138C17.5163 20.1138 17.3263 20.0438 17.1763 19.8938L16.1863 18.9038C15.8963 18.6138 15.8963 18.1338 16.1863 17.8438C16.4762 17.5538 16.9562 17.5538 17.2462 17.8438L17.7263 18.3238L19.3263 16.8438C19.6263 16.5638 20.1063 16.5838 20.3863 16.8838C20.6663 17.1838 20.6463 17.6638 20.3463 17.9438L18.2163 19.9138C18.0663 20.0438 17.8863 20.1138 17.7063 20.1138Z" fill="#C1B4AC"/>
</svg>
