<svg width="36" height="37" viewBox="0 0 36 37" fill="none" xmlns="http://www.w3.org/2000/svg">
<rect y="0.129395" width="36" height="36" rx="6" fill="white"/>
<path d="M14.81 8.12939L11.19 11.7594" stroke="#684735" stroke-width="1.5" stroke-miterlimit="10" stroke-linecap="round" stroke-linejoin="round"/>
<path d="M21.19 8.12939L24.81 11.7594" stroke="#684735" stroke-width="1.5" stroke-miterlimit="10" stroke-linecap="round" stroke-linejoin="round"/>
<path d="M8 13.9795C8 12.1295 8.99 11.9795 10.22 11.9795H25.78C27.01 11.9795 28 12.1295 28 13.9795C28 16.1295 27.01 15.9795 25.78 15.9795H10.22C8.99 15.9795 8 16.1295 8 13.9795Z" stroke="#684735" stroke-width="1.5"/>
<path d="M15.76 20.1294V23.6794" stroke="#684735" stroke-width="1.5" stroke-linecap="round"/>
<path d="M20.36 20.1294V23.6794" stroke="#684735" stroke-width="1.5" stroke-linecap="round"/>
<path d="M10.91 24.7694C11.23 26.7094 12 28.1294 14.86 28.1294H20.89C24 28.1294 24.46 26.7694 24.82 24.8894L26.5 16.1294" stroke="#684735" stroke-width="1.5" stroke-linecap="round"/>
<path d="M9.5 16.1294L10.22 20.5094" stroke="#292D32" stroke-width="1.5" stroke-linecap="round"/>
</svg>
