<svg width="25" height="25" viewBox="0 0 25 25" fill="none" xmlns="http://www.w3.org/2000/svg">
<path d="M15.16 20.2939L13.64 21.814C13.02 22.434 12 22.434 11.38 21.814L9.85999 20.2939C9.59999 20.0339 9.09001 19.824 8.73001 19.824H6.57999C5.69999 19.824 4.98001 19.1039 4.98001 18.2239V16.074C4.98001 15.714 4.77001 15.204 4.51001 14.944L2.98999 13.424C2.36999 12.804 2.36999 11.7839 2.98999 11.1639L4.51001 9.64392C4.77001 9.38392 4.98001 8.87392 4.98001 8.51392V6.36389C4.98001 5.48389 5.69999 4.76392 6.57999 4.76392" stroke="white" stroke-width="1.5" stroke-linecap="round" stroke-linejoin="round"/>
<path d="M9.84 4.27408L11.36 2.75406C11.98 2.13406 13 2.13406 13.62 2.75406L15.14 4.27408C15.4 4.53408 15.91 4.74405 16.27 4.74405H18.42C19.3 4.74405 20.02 5.46415 20.02 6.34415V8.49405C20.02 8.85405 20.23 9.36406 20.49 9.62406L22.01 11.1441C22.63 11.7641 22.63 12.7841 22.01 13.4041L20.49 14.9241C20.23 15.1841 20.02 15.6941 20.02 16.0541V18.2041C20.02 19.0841 19.3 19.8041 18.42 19.8041" stroke="white" stroke-width="1.5" stroke-linecap="round" stroke-linejoin="round"/>
<path d="M9.5 15.2839L15.5 9.28394" stroke="white" stroke-width="1.5" stroke-linecap="round" stroke-linejoin="round"/>
<path d="M14.9945 14.7839H15.0035" stroke="white" stroke-width="2" stroke-linecap="round" stroke-linejoin="round"/>
<path d="M9.99451 9.78394H10.0035" stroke="white" stroke-width="2" stroke-linecap="round" stroke-linejoin="round"/>
</svg>
