<svg width="25" height="24" viewBox="0 0 25 24" fill="none" xmlns="http://www.w3.org/2000/svg">
<path d="M15.1249 20.01L13.6049 21.53C12.9849 22.15 11.9649 22.15 11.3449 21.53L9.82483 20.01C9.56483 19.75 9.05486 19.54 8.69486 19.54H6.54483C5.66483 19.54 4.94486 18.8199 4.94486 17.9399V15.79C4.94486 15.43 4.73486 14.92 4.47486 14.66L2.95484 13.14C2.33484 12.52 2.33484 11.5 2.95484 10.88L4.47486 9.35999C4.73486 9.09999 4.94486 8.58998 4.94486 8.22998V6.07996C4.94486 5.19996 5.66483 4.47998 6.54483 4.47998" stroke="#9C9D9E" stroke-width="1.5" stroke-linecap="round" stroke-linejoin="round"/>
<path d="M9.80484 3.9899L11.3248 2.46988C11.9448 1.84988 12.9648 1.84988 13.5848 2.46988L15.1049 3.9899C15.3649 4.2499 15.8748 4.45987 16.2348 4.45987H18.3849C19.2649 4.45987 19.9848 5.17997 19.9848 6.05997V8.20987C19.9848 8.56987 20.1948 9.07988 20.4548 9.33988L21.9749 10.8599C22.5949 11.4799 22.5949 12.4999 21.9749 13.1199L20.4548 14.6399C20.1948 14.8999 19.9848 15.4099 19.9848 15.7699V17.92C19.9848 18.8 19.2649 19.5199 18.3849 19.5199" stroke="#9C9D9E" stroke-width="1.5" stroke-linecap="round" stroke-linejoin="round"/>
<path d="M9.46484 15L15.4648 9" stroke="#9C9D9E" stroke-width="1.5" stroke-linecap="round" stroke-linejoin="round"/>
<path d="M14.9594 14.5H14.9683" stroke="#9C9D9E" stroke-width="2" stroke-linecap="round" stroke-linejoin="round"/>
<path d="M9.95935 9.5H9.96833" stroke="#9C9D9E" stroke-width="2" stroke-linecap="round" stroke-linejoin="round"/>
</svg>
