<svg width="242" height="241" viewBox="0 0 242 241" fill="none" xmlns="http://www.w3.org/2000/svg">
<g opacity="0.4">
<path d="M168.256 177.203C191.01 142.465 181.294 95.8581 146.555 73.1046C111.816 50.3511 65.2098 60.067 42.4563 94.8057C19.7028 129.544 29.4187 176.151 64.1574 198.904C98.896 221.658 145.503 211.942 168.256 177.203Z" fill="white"/>
<path d="M160.009 187.764C189.374 158.399 189.374 110.789 160.009 81.4242C130.645 52.0593 83.0347 52.0593 53.6698 81.4242C24.3049 110.789 24.3049 158.399 53.6698 187.764C83.0347 217.129 130.645 217.129 160.009 187.764Z" fill="#F7FDF7"/>
<path d="M161.471 186.354C190.836 156.989 190.836 109.38 161.471 80.0147C132.107 50.6498 84.4967 50.6498 55.1318 80.0147C25.767 109.38 25.767 156.989 55.1318 186.354C84.4967 215.719 132.107 215.719 161.471 186.354Z" fill="#EFFBF0"/>
<path d="M162.822 184.833C192.187 155.468 192.187 107.858 162.822 78.4934C133.457 49.1286 85.8469 49.1285 56.4821 78.4934C27.1172 107.858 27.1172 155.468 56.4821 184.833C85.8469 214.198 133.457 214.198 162.822 184.833Z" fill="#E7F9E8"/>
<path d="M164.396 183.312C193.76 153.947 193.76 106.337 164.396 76.9723C135.031 47.6074 87.4209 47.6074 58.056 76.9723C28.6912 106.337 28.6912 153.947 58.056 183.312C87.4209 212.677 135.031 212.677 164.396 183.312Z" fill="#DFF7E0"/>
<path d="M165.858 181.903C195.223 152.538 195.223 104.928 165.858 75.5631C136.493 46.1982 88.8829 46.1982 59.5181 75.5631C30.1532 104.928 30.1532 152.538 59.5181 181.903C88.8829 211.268 136.493 211.268 165.858 181.903Z" fill="#D7F5D9"/>
<path d="M167.32 180.494C196.685 151.129 196.685 103.519 167.32 74.1539C137.955 44.7891 90.3452 44.7891 60.9803 74.1539C31.6155 103.519 31.6155 151.129 60.9803 180.494C90.3452 209.858 137.955 209.858 167.32 180.494Z" fill="#CFF3D1"/>
<path d="M168.67 178.972C198.035 149.608 198.035 101.998 168.67 72.6328C139.305 43.2679 91.6952 43.2679 62.3303 72.6328C32.9654 101.998 32.9654 149.608 62.3303 178.972C91.6952 208.337 139.305 208.337 168.67 178.972Z" fill="#C7F1C9"/>
<path d="M170.244 177.451C199.609 148.086 199.609 100.476 170.244 71.1116C140.879 41.7467 93.2693 41.7467 63.9044 71.1116C34.5395 100.476 34.5395 148.086 63.9044 177.451C93.2693 206.816 140.879 206.816 170.244 177.451Z" fill="#BEEFC2"/>
<path d="M171.706 176.042C201.071 146.677 201.071 99.067 171.706 69.7022C142.341 40.3373 94.7314 40.3373 65.3666 69.7022C36.0017 99.067 36.0017 146.677 65.3666 176.042C94.7314 205.407 142.341 205.407 171.706 176.042Z" fill="#B6EDBA"/>
<path d="M173.168 174.633C202.533 145.268 202.533 97.6578 173.168 68.293C143.803 38.9281 96.1935 38.9281 66.8286 68.293C37.4637 97.6578 37.4637 145.268 66.8286 174.633C96.1935 203.997 143.803 203.997 173.168 174.633Z" fill="#AEEBB3"/>
<path d="M174.519 173.111C203.883 143.746 203.883 96.1366 174.519 66.7717C145.154 37.4069 97.5438 37.4069 68.179 66.7717C38.8141 96.1366 38.8141 143.746 68.1789 173.111C97.5438 202.476 145.154 202.476 174.519 173.111Z" fill="#A6E9AB"/>
<path d="M176.093 171.591C205.457 142.226 205.457 94.6159 176.093 65.251C146.728 35.8861 99.1178 35.8861 69.7529 65.251C40.3881 94.6158 40.3881 142.226 69.7529 171.591C99.1178 200.955 146.728 200.955 176.093 171.591Z" fill="#9EE7A3"/>
<path d="M140.876 190.378C181.396 181.283 206.87 141.063 197.776 100.544C188.681 60.0241 148.46 34.5494 107.941 43.6442C67.4216 52.7389 41.9469 92.9592 51.0416 133.479C60.1364 173.998 100.357 199.473 140.876 190.378Z" fill="#96E59C"/>
<path d="M136.622 190.013C177.719 184.049 206.2 145.899 200.236 104.803C194.273 63.7059 156.123 35.2248 115.026 41.1883C73.9297 47.1518 45.4486 85.3017 51.4121 126.398C57.3756 167.495 95.5255 195.976 136.622 190.013Z" fill="#8EE394"/>
<path d="M133.245 189.14C174.64 185.83 205.515 149.588 202.204 108.192C198.894 66.7967 162.652 35.9225 121.256 39.2329C79.8607 42.5434 48.9865 78.7849 52.297 120.181C55.6074 161.576 91.8489 192.451 133.245 189.14Z" fill="#86E18C"/>
<path d="M130.675 187.758C172.187 186.647 204.939 152.095 203.828 110.583C202.717 69.071 168.165 36.3193 126.653 37.43C85.1409 38.5406 52.3892 73.0932 53.4998 114.605C54.6105 156.117 89.163 188.869 130.675 187.758Z" fill="#7EE085"/>
<path d="M205.404 112.404C206.104 70.8792 173.009 36.6497 131.485 35.9498C89.9604 35.25 55.7308 68.3448 55.031 109.869C54.3311 151.394 87.426 185.623 128.95 186.323C170.475 187.023 204.704 153.928 205.404 112.404Z" fill="#76DE7D"/>
<path d="M206.789 113.69C208.981 72.2196 177.14 36.824 135.67 34.6319C94.1991 32.4397 58.8036 64.2811 56.6114 105.752C54.4193 147.222 86.2607 182.618 127.731 184.81C169.202 187.002 204.597 155.16 206.789 113.69Z" fill="#6EDC75"/>
<path d="M208.143 114.507C211.573 73.1195 180.802 36.7879 139.415 33.3581C98.0272 29.9282 61.6957 60.6989 58.2658 102.086C54.836 143.474 85.6067 179.805 126.994 183.235C168.381 186.665 204.713 155.894 208.143 114.507Z" fill="#66DA6E"/>
<path d="M209.289 114.94C213.754 73.652 183.902 36.5626 142.615 32.0983C101.327 27.634 64.2376 57.4852 59.7733 98.773C55.309 140.061 85.1603 177.15 126.448 181.614C167.736 186.079 204.825 156.227 209.289 114.94Z" fill="#5ED866"/>
<path d="M210.624 114.964C215.964 73.7801 186.908 36.0645 145.724 30.7239C104.54 25.3834 66.8241 54.4401 61.4836 95.624C56.143 136.808 85.1997 174.523 126.384 179.864C167.568 185.205 205.283 156.148 210.624 114.964Z" fill="#56D65E"/>
<path d="M211.92 114.877C218.004 73.7968 189.634 35.5628 148.554 29.4789C107.474 23.3949 69.24 51.7649 63.1561 92.845C57.0721 133.925 85.4421 172.159 126.522 178.243C167.602 184.327 205.836 155.957 211.92 114.877Z" fill="#4ED457"/>
<path d="M213.231 114.603C219.954 73.6225 192.183 34.9509 151.203 28.2274C110.222 21.5039 71.5509 49.2746 64.8274 90.2551C58.1039 131.235 85.8746 169.907 126.855 176.631C167.835 183.354 206.507 155.583 213.231 114.603Z" fill="#46D24F"/>
<path d="M214.392 114.171C221.672 73.2858 194.43 34.2405 153.545 26.9605C112.66 19.6806 73.6151 46.9227 66.3351 87.8076C59.0551 128.693 86.2973 167.738 127.182 175.018C168.067 182.298 207.112 155.056 214.392 114.171Z" fill="#3DD048"/>
<path d="M215.773 113.464C223.539 72.6667 196.762 33.2982 155.964 25.5323C115.166 17.7665 75.7977 44.5441 68.0319 85.3418C60.266 126.139 87.0436 165.508 127.841 173.274C168.639 181.04 208.008 154.262 215.773 113.464Z" fill="#35CE40"/>
<path d="M217.079 112.832C225.273 72.1215 198.912 32.4769 158.202 24.2833C117.491 16.0897 77.8469 42.4499 69.6533 83.1603C61.4597 123.871 87.8199 163.515 128.53 171.709C169.241 179.903 208.885 153.542 217.079 112.832Z" fill="#2DCC38"/>
<path d="M218.433 112.13C227.008 71.4979 201.022 31.6076 160.39 23.0319C119.759 14.4563 79.8684 40.4427 71.2927 81.0743C62.7171 121.706 88.7035 161.596 129.335 170.172C169.967 178.748 209.857 152.761 218.433 112.13Z" fill="#25CA31"/>
<path d="M219.65 111.261C228.562 70.6995 202.906 30.5937 162.345 21.6817C121.784 12.7697 81.6779 38.4262 72.7658 78.9872C63.8538 119.548 89.5103 159.654 130.071 168.566C170.632 177.478 210.738 151.821 219.65 111.261Z" fill="#1DC829"/>
<path d="M221.082 110.268C230.301 69.7731 204.948 29.472 164.453 20.2527C123.959 11.0333 83.6578 36.3869 74.4385 76.8814C65.2191 117.376 90.5727 157.677 131.067 166.896C171.562 176.116 211.863 150.762 221.082 110.268Z" fill="#15C621"/>
<path d="M222.411 109.322C231.9 68.8944 206.82 28.4284 166.392 18.9391C125.963 9.44983 85.4974 34.5307 76.0082 74.9588C66.5189 115.387 91.5997 155.853 132.028 165.342C172.456 174.831 212.922 149.751 222.411 109.322Z" fill="#0DC41A"/>
<path d="M223.808 108.362C233.546 67.9925 208.715 27.3716 168.345 17.6332C127.975 7.8947 87.3538 32.7264 77.6153 73.0964C67.8769 113.466 92.7086 154.087 133.079 163.826C173.449 173.564 214.069 148.732 223.808 108.362Z" fill="#05C212"/>
</g>
<path d="M223.808 108.362C233.546 67.9925 208.715 27.3716 168.345 17.6332C127.975 7.8947 87.3538 32.7264 77.6153 73.0964C67.8769 113.466 92.7086 154.087 133.079 163.826C173.449 173.564 214.069 148.732 223.808 108.362Z" fill="white"/>
<path d="M150.676 167.538C108.251 167.538 73.8988 133.028 73.8988 90.761C73.8988 48.3356 108.409 13.9838 150.676 13.9838C193.101 13.9838 227.453 48.4939 227.453 90.761C227.453 133.028 193.101 167.538 150.676 167.538ZM150.676 17.1498C110.15 17.1498 77.0649 50.2353 77.0649 90.761C77.0649 131.287 110.15 164.372 150.676 164.372C191.202 164.372 224.287 131.287 224.287 90.761C224.287 50.2353 191.36 17.1498 150.676 17.1498Z" fill="#05C212"/>
<path d="M142.919 174.82C107.142 174.82 75.64 149.492 68.1997 114.506C68.0414 113.873 68.5163 113.24 69.1495 113.082C69.7827 112.923 70.416 113.398 70.5743 114.032C77.8562 147.909 108.251 172.604 142.919 172.604C150.834 172.604 158.433 171.337 165.873 168.963C166.506 168.805 167.139 169.121 167.298 169.754C167.456 170.388 167.139 171.021 166.506 171.179C159.066 173.554 150.992 174.82 142.919 174.82ZM193.259 155.507C192.943 155.507 192.626 155.349 192.31 155.191C191.835 154.716 191.835 153.924 192.468 153.449C207.982 139.36 217.005 119.414 217.005 98.5178V98.2012C217.005 97.568 217.48 96.9348 218.113 96.9348C218.746 96.9348 219.221 97.4097 219.38 98.0429V98.3595C219.38 119.889 210.198 140.627 194.209 155.191C193.893 155.349 193.576 155.507 193.259 155.507ZM67.7248 99.626C67.0916 99.626 66.4584 99.1511 66.4584 98.5178V98.3595C66.4584 76.8302 75.64 56.2508 91.6286 41.6869C92.1035 41.212 92.8951 41.212 93.37 41.8452C93.8449 42.3201 93.8449 43.1116 93.2117 43.5865C77.6979 57.6755 68.8329 77.6218 68.8329 98.5178C68.9912 99.1511 68.358 99.626 67.7248 99.626ZM216.53 83.6373C216.055 83.6373 215.422 83.3207 215.422 82.6875C208.14 48.8105 177.746 24.2735 143.077 24.2735C135.162 24.2735 127.405 25.5399 119.965 27.9145C119.332 28.0728 118.699 27.7562 118.54 27.1229C118.382 26.4897 118.699 25.8565 119.332 25.6982C126.93 23.1654 135.004 21.8989 143.236 21.8989C179.012 21.8989 210.356 47.2275 217.955 82.0543C218.113 82.6875 217.638 83.3207 217.005 83.479C216.688 83.6373 216.53 83.6373 216.53 83.6373Z" fill="#684735"/>
<path d="M186.769 53.7177L135.004 105.641L114.424 85.0618L100.177 99.3091L135.004 134.136L201.016 67.965L186.769 53.7177Z" fill="#05C212"/>
</svg>
