<svg width="36" height="37" viewBox="0 0 36 37" fill="none" xmlns="http://www.w3.org/2000/svg">
<rect y="0.129395" width="36" height="36" rx="6" fill="white"/>
<path d="M24 24.9896H23.24C22.44 24.9896 21.68 25.2996 21.12 25.8596L19.41 27.5496C18.63 28.3196 17.36 28.3196 16.58 27.5496L14.87 25.8596C14.31 25.2996 13.54 24.9896 12.75 24.9896H12C10.34 24.9896 9 23.6597 9 22.0197V11.1096C9 9.46962 10.34 8.13965 12 8.13965H24C25.66 8.13965 27 9.46962 27 11.1096V22.0197C27 23.6497 25.66 24.9896 24 24.9896Z" stroke="#684735" stroke-width="1.5" stroke-miterlimit="10" stroke-linecap="round" stroke-linejoin="round"/>
<path d="M18 16.1292C19.2868 16.1292 20.33 15.086 20.33 13.7992C20.33 12.5124 19.2868 11.4692 18 11.4692C16.7132 11.4692 15.67 12.5124 15.67 13.7992C15.67 15.086 16.7132 16.1292 18 16.1292Z" stroke="#684735" stroke-width="1.5" stroke-linecap="round" stroke-linejoin="round"/>
<path d="M22 21.7892C22 19.9892 20.21 18.5293 18 18.5293C15.79 18.5293 14 19.9892 14 21.7892" stroke="#684735" stroke-width="1.5" stroke-linecap="round" stroke-linejoin="round"/>
</svg>
