<svg width="23" height="24" viewBox="0 0 23 24" fill="none" xmlns="http://www.w3.org/2000/svg">
<path d="M21.2099 12.5578C21.2099 11.7335 21.1452 11.132 21.0053 10.5083H11.9067V14.2285H17.2474C17.1397 15.153 16.5583 16.5453 15.2662 17.4809L15.248 17.6054L18.1248 19.9108L18.3242 19.9314C20.1546 18.1827 21.2099 15.6097 21.2099 12.5578Z" fill="#4285F4"/>
<path d="M11.9061 22.3597C14.5226 22.3597 16.7191 21.4685 18.3235 19.9315L15.2655 17.4809C14.4472 18.0713 13.3489 18.4834 11.9061 18.4834C9.34344 18.4834 7.16842 16.7347 6.39309 14.3176L6.27944 14.3276L3.28811 16.7224L3.24899 16.8349C4.84257 20.1096 8.1159 22.3597 11.9061 22.3597Z" fill="#34A853"/>
<path d="M6.39367 14.3178C6.1891 13.694 6.0707 13.0257 6.0707 12.3351C6.0707 11.6445 6.1891 10.9762 6.38291 10.3525L6.37749 10.2196L3.34867 7.78638L3.24957 7.83514C2.59278 9.19404 2.21591 10.72 2.21591 12.3351C2.21591 13.9502 2.59278 15.4761 3.24957 16.835L6.39367 14.3178Z" fill="#FBBC05"/>
<path d="M11.9061 6.1867C13.7258 6.1867 14.9533 6.9998 15.6532 7.67929L18.3882 4.91694C16.7085 3.30187 14.5226 2.31055 11.9061 2.31055C8.11593 2.31055 4.84258 4.56049 3.24899 7.83517L6.38234 10.3525C7.16845 7.93545 9.34348 6.1867 11.9061 6.1867Z" fill="#EB4335"/>
</svg>
