<svg width="25" height="25" viewBox="0 0 25 25" fill="none" xmlns="http://www.w3.org/2000/svg">
<path d="M24.2395 7.71663C23.9307 7.98456 23.4713 7.93738 23.2175 7.61129L17.9774 0.878418H7.03048L1.79012 7.61129C1.5363 7.93738 1.07692 7.98456 0.768066 7.71663" stroke="#684735" stroke-width="0.8" stroke-linecap="round"/>
<path d="M16.7217 3.01025L16.7324 3.02393L22.2148 9.98193C22.2148 9.98488 22.2158 9.98779 22.2158 9.99072V23.9429H19.2168C18.3331 23.9429 17.6162 23.2259 17.6162 22.3423V17.1665C17.6162 15.8411 16.5422 14.7662 15.2168 14.7661H9.79102C8.46563 14.7662 7.3916 15.8411 7.3916 17.1665V22.3423C7.3916 23.2259 6.67467 23.9429 5.79102 23.9429H2.79199V9.98193L2.80078 9.97314L2.8125 9.9585L8.28613 3.01025H16.7217ZM12.5039 5.02881C11.8941 5.02883 11.3457 5.29052 10.9531 5.70459C10.5608 6.11842 10.3213 6.68718 10.3213 7.31006C10.3213 7.93299 10.5608 8.50164 10.9531 8.91553C11.3457 9.32971 11.894 9.59129 12.5039 9.59131C13.1138 9.59131 13.6621 9.32968 14.0547 8.91553C14.447 8.50165 14.6875 7.93299 14.6875 7.31006C14.6874 6.68718 14.447 6.11842 14.0547 5.70459C13.6621 5.29055 13.1137 5.02881 12.5039 5.02881Z" fill="#A7948A" stroke="#684735" stroke-width="0.8"/>
<path d="M8.81836 18.9839C8.81836 18.3512 9.59111 18.0432 10.0264 18.5024L11.1201 19.6558C11.3758 19.9257 11.3758 20.3487 11.1201 20.6187L10.0264 21.772C9.5911 22.2311 8.81836 21.9232 8.81836 21.2905V18.9839Z" stroke="#684735" stroke-width="0.6"/>
<path d="M14.981 18.5024C15.4162 18.0432 16.189 18.3512 16.189 18.9839V21.2905C16.189 21.9232 15.4162 22.2312 14.981 21.772L13.8882 20.6187C13.6322 20.3486 13.6322 19.9258 13.8882 19.6558L14.981 18.5024Z" stroke="#684735" stroke-width="0.6"/>
</svg>
