<svg width="21" height="23" viewBox="0 0 21 23" fill="none" xmlns="http://www.w3.org/2000/svg">
<path d="M2.88489 22.7482C2.84831 22.7482 2.81514 22.7446 2.78782 22.7395C2.51904 22.7644 2.35075 22.6547 2.25562 22.5546C1.98538 22.2705 2.03709 21.798 2.05172 21.6963L2.48099 18.3671C2.48587 18.3305 2.49709 18.2949 2.51465 18.2624L3.60392 16.2451L3.34489 14.615C2.92831 13.208 3.3488 12.3605 3.77562 11.8965C4.79221 10.7924 6.80587 10.7192 8.25514 11.1181C8.33953 11.1288 8.42343 11.1384 8.50587 11.1476C8.66001 11.1648 8.77172 11.3086 8.75562 11.4697C8.73904 11.6303 8.6005 11.7472 8.44636 11.7299C8.35514 11.7197 8.26245 11.7085 8.16831 11.6968C8.15514 11.6953 8.14197 11.6928 8.12928 11.6892C6.79172 11.3158 5.00587 11.4067 4.18099 12.302C3.70928 12.8142 3.61026 13.5403 3.88684 14.4601C3.89075 14.4733 3.89367 14.4865 3.89611 14.4997L4.17416 16.2512C4.18441 16.3168 4.17319 16.3843 4.14197 16.4423L3.03026 18.5007L2.60782 21.7771C2.60733 21.7792 2.60733 21.7812 2.60684 21.7837C2.5888 21.9108 2.60489 22.0922 2.65367 22.143C2.67514 22.1653 2.74197 22.1567 2.76197 22.1537C2.80294 22.1471 2.84489 22.1506 2.88489 22.1628C2.90636 22.1592 2.99904 22.0917 3.06684 21.7848C3.22782 21.0566 3.58489 18.9367 3.5888 18.9153C3.59709 18.8671 3.6166 18.8218 3.64587 18.7837L5.63075 16.1892C5.66538 16.144 5.7127 16.11 5.76587 16.0927C5.80148 16.08 6.70245 15.7446 7.24197 14.079C7.29172 13.926 7.45075 13.8432 7.59806 13.895C7.74489 13.9468 7.82392 14.113 7.77465 14.266C7.23075 15.9438 6.31367 16.4819 6.02441 16.6145L4.13026 19.0901C4.06441 19.4784 3.76392 21.2421 3.61514 21.9159C3.53026 22.3 3.37611 22.5561 3.15758 22.6765C3.05758 22.7319 2.96245 22.7482 2.88489 22.7482ZM2.90538 22.1699C2.90538 22.1699 2.90587 22.1699 2.90636 22.1704C2.90587 22.1699 2.90587 22.1699 2.90538 22.1699ZM2.90441 22.1694H2.90489C2.90441 22.1694 2.90441 22.1694 2.90441 22.1694ZM16.421 15.9341C16.3898 15.9341 16.3576 15.9286 16.3264 15.9169C16.18 15.8625 16.1039 15.6948 16.1566 15.5429L18.0244 10.1018C18.0659 9.9814 18.1781 9.90315 18.3005 9.90772C18.4234 9.9128 18.5288 10.0007 18.5605 10.1242L19.1 12.2212C19.3195 13.0744 19.6171 13.3467 19.8044 13.3213C20.0439 13.2883 20.3225 12.8473 20.3225 12.3274V8.7436C20.3225 8.58811 20.2795 8.36047 19.9068 8.17652C19.7668 8.10742 19.7068 7.93262 19.7732 7.78679C19.8395 7.64095 20.0073 7.57845 20.1473 7.64807C20.7561 7.94888 20.8839 8.41026 20.8839 8.7441V12.3279C20.8839 13.1201 20.4327 13.8264 19.8776 13.9026C19.5429 13.9489 18.9268 13.8112 18.5571 12.3737L18.2507 11.1821L16.6859 15.7405C16.6449 15.8594 16.5366 15.9341 16.421 15.9341ZM14.8454 10.2329C14.7649 10.2329 14.6849 10.1974 14.6298 10.1277C14.5303 10.0038 14.5464 9.81931 14.6654 9.71565C14.9893 9.43364 15.2717 9.13943 15.5444 8.85538C16.3337 8.03272 17.079 7.25528 18.439 7.31575C18.6376 7.32439 18.9 7.33963 19.1722 7.37723C19.3259 7.39858 19.4342 7.54542 19.4137 7.70599C19.3932 7.86605 19.2522 7.97937 19.0981 7.95752C18.8478 7.92297 18.6015 7.90925 18.4146 7.90061C17.302 7.85081 16.7015 8.47734 15.9415 9.26951C15.66 9.56321 15.3688 9.86656 15.0249 10.1653C14.9732 10.2106 14.9093 10.2329 14.8454 10.2329Z" fill="#0D0F13"/>
<path d="M9.5717 22.6781C9.16096 22.6781 8.83413 22.2411 8.68682 21.9316L7.22974 19.1313C6.86584 18.5688 7.02974 17.8401 7.04535 17.7756L7.25609 16.862L6.54877 15.769C6.46194 15.6349 6.49609 15.453 6.62487 15.3625C6.75365 15.2721 6.92828 15.3076 7.01511 15.4418L7.79169 16.6425C7.8356 16.7106 7.85023 16.7949 7.8317 16.8747L7.5917 17.9154C7.59121 17.9169 7.59072 17.9189 7.59023 17.9204C7.58926 17.9245 7.46438 18.4575 7.70096 18.8127C7.70682 18.8213 7.71218 18.8305 7.71706 18.8401L9.18389 21.6587C9.18584 21.6623 9.18731 21.6659 9.18926 21.6694C9.27218 21.8427 9.48926 22.1379 9.6073 22.0841C9.62145 22.0774 9.63657 22.0719 9.6517 22.0683C9.71755 22.051 9.72828 22.0261 9.73462 22.0114C9.78194 21.9016 9.73657 21.5896 9.52487 21.1633L8.47852 19.0561C8.46438 19.0276 8.11413 18.3173 8.58048 17.549C8.73365 17.0739 8.89462 16.4926 8.89462 16.3544C8.89462 16.1928 9.02048 16.0617 9.1756 16.0617C9.33072 16.0617 9.45657 16.1928 9.45657 16.3544C9.45657 16.6567 9.18487 17.5149 9.10145 17.771C9.09365 17.7949 9.08291 17.8178 9.06974 17.8386C8.76096 18.3239 8.96877 18.7685 8.97804 18.7873L10.0244 20.894C10.2219 21.2919 10.421 21.8498 10.2473 22.2512C10.1902 22.3833 10.0688 22.5541 9.81218 22.6293C9.72926 22.6628 9.64877 22.6781 9.5717 22.6781Z" fill="#0D0F13"/>
<path d="M10.0332 16.7472C8.14489 16.7472 6.89953 15.4865 6.84489 15.4301C6.73465 15.3163 6.73367 15.1313 6.84294 15.016C6.95221 14.9011 7.12977 14.9001 7.24001 15.0134C7.25709 15.0307 8.5088 16.2842 10.3078 16.1511C10.3146 16.1506 10.321 16.1506 10.3278 16.1506H11.6732C11.8283 16.1506 11.9542 16.2817 11.9542 16.4433C11.9542 16.6049 11.8283 16.736 11.6732 16.736H10.3376C10.2342 16.7436 10.1327 16.7472 10.0332 16.7472ZM14.4049 16.736H13.062C12.9068 16.736 12.781 16.6049 12.781 16.4433C12.781 16.2817 12.9068 16.1506 13.062 16.1506H14.4049C14.56 16.1506 14.6859 16.2817 14.6859 16.4433C14.6859 16.6049 14.56 16.736 14.4049 16.736Z" fill="#0D0F13"/>
<path d="M13.8722 22.7777C13.8249 22.7777 13.7756 22.7726 13.7234 22.7614C13.4458 22.7263 13.2414 22.6069 13.1171 22.4072C12.8751 22.0195 13.0414 21.4728 13.1517 21.111L13.1663 21.0622C13.4029 20.2802 13.7107 18.9016 13.7371 18.7832L14.1278 16.3945C14.1536 16.235 14.299 16.1278 14.4517 16.1552C14.6049 16.1821 14.7078 16.3335 14.6814 16.4926L14.2892 18.8894C14.2883 18.895 14.2873 18.9006 14.2863 18.9062C14.2727 18.9667 13.9551 20.4021 13.7019 21.238L13.6868 21.2883C13.618 21.5134 13.4907 21.9326 13.5878 22.0886C13.6185 22.1379 13.6897 22.1689 13.8 22.1816C13.8102 22.1826 13.8205 22.1847 13.8307 22.1867C14.0419 22.236 14.2332 21.5175 14.3151 21.2101C14.3488 21.083 14.378 20.9738 14.4093 20.8823C14.6946 20.0383 14.8688 19.4336 14.9 19.1786C14.9024 19.1598 14.9063 19.141 14.9122 19.1232C15.1424 18.4037 15.3907 17.5195 15.3907 17.3457C15.3907 17.1842 15.5166 17.0531 15.6717 17.0531C15.8268 17.0531 15.9527 17.1842 15.9527 17.3457C15.9527 17.6877 15.581 18.8823 15.4532 19.2827C15.4088 19.5952 15.2361 20.1984 14.939 21.0769C14.9146 21.1496 14.8863 21.2553 14.8566 21.3671C14.7136 21.9052 14.4805 22.7777 13.8722 22.7777Z" fill="#0D0F13"/>
<path d="M19.7625 22.7487C19.2327 22.7487 18.8942 22.1237 18.7351 21.831L17.2605 19.11L13.7595 16.0622C13.6405 15.9585 13.6244 15.7741 13.7239 15.6501C13.8234 15.5261 14.0005 15.5094 14.1195 15.613L17.6595 18.6948C17.6854 18.7177 17.7073 18.7446 17.7239 18.7756L19.2234 21.5429C19.4986 22.0505 19.6756 22.2172 19.8556 22.1394C19.8644 22.1354 19.8732 22.1323 19.8825 22.1293C19.941 22.111 19.9498 22.0907 19.9532 22.083C20.0186 21.9331 19.8244 21.487 19.7312 21.2726C19.6932 21.1852 19.6576 21.1028 19.6298 21.0292L18.9112 19.1252C18.682 18.6618 18.2395 17.9616 17.9561 17.8244C17.8888 17.7954 17.4337 17.5891 16.9825 17.1338C16.5381 16.6857 16.0093 15.9011 16.0166 14.709C16.0176 14.5475 16.1449 14.4194 16.2995 14.4184C16.4547 14.4194 16.5795 14.551 16.5786 14.7131C16.5673 16.5871 18.1068 17.2568 18.1722 17.2842C18.1756 17.2858 18.1795 17.2873 18.1829 17.2888C18.7498 17.5546 19.3112 18.6537 19.4181 18.8711C19.4225 18.8798 19.4259 18.8884 19.4293 18.8971L20.1527 20.8147C20.1751 20.8742 20.2083 20.9504 20.2434 21.0307C20.4181 21.4326 20.6356 21.9326 20.4649 22.3244C20.4127 22.4448 20.2995 22.6039 20.0595 22.6841C19.9551 22.7294 19.8556 22.7487 19.7625 22.7487Z" fill="#0D0F13"/>
<path d="M19.962 8.79339C19.8307 8.79339 19.7137 8.69736 19.6868 8.55813C19.6161 8.19075 19.799 7.62927 19.9776 7.19939C19.3585 7.53628 19.1493 8.34065 19.1468 8.35081C19.1078 8.50732 18.9542 8.60081 18.8039 8.56016C18.6537 8.51951 18.5639 8.35945 18.6029 8.20295C18.62 8.13486 19.039 6.53069 20.482 6.46972C20.5824 6.46616 20.6785 6.51799 20.7317 6.60742C20.7854 6.69685 20.7883 6.80915 20.74 6.90163C20.4976 7.36656 20.182 8.15213 20.2376 8.44278C20.2678 8.60132 20.1693 8.75528 20.0171 8.7873C19.9985 8.79187 19.98 8.79339 19.962 8.79339Z" fill="#0D0F13"/>
<path d="M9.69901 12.7909C9.68681 12.7909 9.67462 12.7909 9.66242 12.7909C8.78681 12.7837 8.16242 12.5266 8.13608 12.5155C8.05023 12.4794 7.98681 12.4016 7.96633 12.3076C7.94828 12.2228 7.9673 12.1338 8.01803 12.0658C8.12535 11.8468 8.41072 10.4575 8.62974 9.21464V6.05407C8.62974 6.04899 8.62974 6.04442 8.63023 6.03933C8.69023 4.80204 9.76681 4.40366 10.3278 4.36606C10.3312 4.36606 10.3341 4.36555 10.3375 4.36555C10.8419 4.34929 11.8897 4.6374 12.2424 5.83862C12.5146 6.54899 12.9444 7.65976 13.0766 7.97379L14.699 8.85641C14.7093 8.862 14.7195 8.8686 14.7293 8.87521C15.2268 9.23496 15.2805 9.72785 15.12 10.0337C14.959 10.3401 14.5488 10.5424 13.9922 10.3092L12.0629 9.77053C11.9951 9.75173 11.9366 9.70702 11.899 9.64503L10.5453 7.43568C10.4619 7.2995 10.5005 7.1186 10.6312 7.03171C10.7619 6.94482 10.9356 6.98496 11.019 7.12114L12.3141 9.23446L14.1551 9.74818C14.1673 9.75173 14.179 9.7558 14.1902 9.76088C14.4214 9.86098 14.5849 9.83253 14.6268 9.75275C14.6697 9.67094 14.6122 9.50885 14.4219 9.36606L12.7317 8.44685C12.6819 8.41992 12.641 8.37775 12.6141 8.32592C12.5224 8.14909 11.8493 6.3935 11.7156 6.0434C11.7127 6.03527 11.7097 6.02714 11.7073 6.01901C11.4068 4.9748 10.4483 4.9499 10.3605 4.9499C10.36 4.9499 10.359 4.9499 10.3585 4.9499C10.2673 4.95803 9.24437 5.06982 9.19169 6.06118V9.24055C9.19169 9.25834 9.19023 9.27612 9.1873 9.2934C8.90437 10.9037 8.72437 11.6775 8.61072 12.0581C8.84925 12.1242 9.23218 12.204 9.68779 12.2055H9.70047C10.7156 12.2055 11.6034 11.833 12.3395 11.0983C12.4517 10.9865 12.6293 10.9906 12.7366 11.1069C12.8439 11.2238 12.84 11.4087 12.7283 11.5205C11.681 12.5668 10.5097 12.7909 9.69901 12.7909ZM8.03559 12.0439C8.03559 12.0444 8.03559 12.0444 8.03559 12.0439V12.0439Z" fill="#0D0F13"/>
<path d="M0.421961 18.1928C0.305376 18.1928 0.200985 18.1181 0.159522 18.0048C0.118059 17.8915 0.147815 17.7629 0.234644 17.6821C0.269766 17.6486 1.11806 16.8188 0.834644 15.2299C0.834156 15.2263 0.833668 15.2228 0.832693 15.2192C0.82879 15.1923 0.742449 14.5566 0.937083 13.8178C1.12001 13.1222 1.59269 12.2019 2.8044 11.771C2.83367 11.7604 2.8644 11.7553 2.89513 11.7553H4.02781C4.18294 11.7553 4.30879 11.8864 4.30879 12.048C4.30879 12.2096 4.18294 12.3407 4.02781 12.3407H2.94342C2.18196 12.6252 1.68977 13.174 1.47952 13.9728C1.32342 14.5653 1.38245 15.079 1.38879 15.1298C1.57172 16.1643 1.3444 16.9392 1.08879 17.4408C2.24489 16.8031 2.31367 14.552 2.31416 14.5251C2.35367 12.8127 3.48147 12.3945 3.52928 12.3778C3.67611 12.3254 3.83562 12.4077 3.88586 12.5607C3.93562 12.7131 3.85806 12.8783 3.7122 12.9311C3.67416 12.9458 2.90538 13.2558 2.87562 14.5388C2.87464 14.5749 2.85269 15.4367 2.5605 16.3117C2.15025 17.5424 1.41074 18.1928 0.421961 18.1928Z" fill="#0D0F13"/>
<path d="M12.9283 18.5678H12.0966C11.9493 18.5678 11.8107 18.5078 11.7063 18.3986C11.6063 18.2939 11.5497 18.1572 11.5454 18.0109L11.2044 14.5673L9.75267 12.6714C9.65608 12.5449 9.6756 12.361 9.79706 12.2604C9.91852 12.1598 10.0951 12.1801 10.1917 12.3066L11.6951 14.2695C11.7288 14.3132 11.7493 14.3661 11.7551 14.422L12.1054 17.9636C12.1058 17.9697 12.1063 17.9763 12.1068 17.9824H12.9175L12.9171 17.7279L12.5078 13.9154L11.3893 12.1679C11.3029 12.0332 11.338 11.8518 11.4673 11.7619C11.5961 11.672 11.7707 11.7085 11.8571 11.8432L13.0136 13.6501C13.0385 13.6887 13.0541 13.7334 13.059 13.7797L13.4775 17.6791C13.4785 17.6897 13.4795 17.7004 13.4795 17.7111L13.48 17.9931C13.4795 18.3102 13.2322 18.5678 12.9283 18.5678Z" fill="#0D0F13"/>
<path d="M13.782 13.7284H12.5385C12.3834 13.7284 12.2576 13.5973 12.2576 13.4357C12.2576 13.2741 12.3834 13.143 12.5385 13.143H13.782C14.3498 13.143 14.8122 12.6618 14.8122 12.0698V9.71616C14.8122 9.55458 14.9381 9.42348 15.0932 9.42348C15.2483 9.42348 15.3742 9.55458 15.3742 9.71616V12.0698C15.3737 12.9845 14.6595 13.7284 13.782 13.7284ZM10.6971 13.7284H8.72684C7.84879 13.7284 7.13513 12.9845 7.13513 12.0703V11.2446C7.13513 11.083 7.26099 10.9519 7.41611 10.9519C7.57123 10.9519 7.69708 11.083 7.69708 11.2446V12.0703C7.69708 12.6618 8.15903 13.1435 8.72733 13.1435H10.6976C10.8527 13.1435 10.9785 13.2746 10.9785 13.4362C10.9785 13.5978 10.8522 13.7284 10.6971 13.7284Z" fill="#0D0F13"/>
<path d="M20.6034 12.5901H18.8288C16.9571 12.5901 14.7381 10.2446 14.6444 10.1445C14.5361 10.0287 14.5381 9.84371 14.6493 9.7309C14.7605 9.6181 14.9381 9.62013 15.0464 9.73598C15.0678 9.75885 17.1937 12.0053 18.8283 12.0053H20.6029C20.7581 12.0053 20.8839 12.1364 20.8839 12.298C20.8839 12.4596 20.7586 12.5901 20.6034 12.5901Z" fill="#0D0F13"/>
<path d="M10.101 4.30864H10.038C9.2239 4.30864 8.56195 3.6186 8.56195 2.77104V1.77663C8.56195 0.928562 9.22439 0.239029 10.038 0.239029H10.101C10.9151 0.239029 11.5771 0.92907 11.5771 1.77663V2.77053C11.5771 3.6186 10.9151 4.30864 10.101 4.30864ZM10.038 0.824395C9.53415 0.824395 9.1239 1.25173 9.1239 1.77663V2.77053C9.1239 3.29543 9.53415 3.72277 10.038 3.72277H10.101C10.6049 3.72277 11.0151 3.29543 11.0151 2.77053V1.77663C11.0151 1.25122 10.6049 0.824395 10.101 0.824395H10.038Z" fill="#0D0F13"/>
<path d="M11.9776 2.06931H8.84293C8.6878 2.06931 8.56195 1.93822 8.56195 1.77663C8.56195 1.61505 8.6878 1.48395 8.84293 1.48395H11.9776C12.1327 1.48395 12.2585 1.61505 12.2585 1.77663C12.2585 1.93822 12.1327 2.06931 11.9776 2.06931Z" fill="#0D0F13"/>
</svg>
