<svg width="192" height="53" viewBox="0 0 192 53" fill="none" xmlns="http://www.w3.org/2000/svg">
<path d="M55.648 39.2302V39.1662C56.8213 38.0782 57.408 36.4568 57.408 34.3022V17.4702H62.944V34.5262C62.944 36.6382 62.1547 38.2062 60.576 39.2302H55.648ZM65.6603 35.1982C65.5536 34.6648 65.4469 33.9822 65.3403 33.1502C65.2336 32.3182 65.1483 31.4435 65.0843 30.5262C65.0203 29.6088 64.9883 28.7875 64.9883 28.0622C64.9883 26.1208 65.2016 24.2222 65.6283 22.3662C66.0549 20.5102 66.6523 18.8782 67.4203 17.4702H77.6603C78.4283 18.8782 79.0256 20.5102 79.4523 22.3662C79.8789 24.2222 80.0923 26.1208 80.0923 28.0622C80.0923 28.7875 80.0603 29.6088 79.9963 30.5262C79.9323 31.4435 79.8469 32.3182 79.7403 33.1502C79.6549 33.9822 79.5483 34.6648 79.4203 35.1982H73.9163C74.1083 34.3662 74.2576 33.6302 74.3643 32.9902C74.4709 32.3502 74.5563 31.6995 74.6203 31.0382C74.6843 30.3768 74.7376 29.6195 74.7803 28.7662H70.3003C70.3429 29.6195 70.3963 30.3768 70.4603 31.0382C70.5243 31.6995 70.6096 32.3502 70.7163 32.9902C70.8443 33.6302 70.9936 34.3662 71.1643 35.1982H65.6603ZM70.4603 25.1182H74.6203C74.4709 24.0302 74.2149 22.9102 73.8523 21.7582C73.4896 20.6062 73.0523 19.5928 72.5403 18.7182C72.0283 19.5928 71.5909 20.6062 71.2283 21.7582C70.8656 22.8888 70.6096 24.0088 70.4603 25.1182ZM83.482 35.1982L81.114 17.4702H86.65L88.89 34.1102H88.922C89.9033 32.9582 90.3513 31.1982 90.266 28.8302L89.882 17.4702H95.386L95.706 28.8302C95.7487 30.1955 95.738 31.2835 95.674 32.0942C95.6313 32.9048 95.4927 33.5768 95.258 34.1102L95.29 34.1422C96.25 33.3955 96.9007 32.5635 97.242 31.6462C97.5833 30.7075 97.7967 29.5128 97.882 28.0622L98.426 17.4702H103.866L103.258 28.7342C103.194 30.0782 103.087 31.1448 102.938 31.9342C102.789 32.7022 102.575 33.3208 102.298 33.7902C102.021 34.2595 101.637 34.7288 101.146 35.1982H83.482ZM106.067 35.1982C105.96 34.6648 105.853 33.9822 105.747 33.1502C105.64 32.3182 105.555 31.4435 105.491 30.5262C105.427 29.6088 105.395 28.7875 105.395 28.0622C105.395 26.1208 105.608 24.2222 106.035 22.3662C106.461 20.5102 107.059 18.8782 107.827 17.4702H118.067C118.835 18.8782 119.432 20.5102 119.859 22.3662C120.285 24.2222 120.499 26.1208 120.499 28.0622C120.499 28.7875 120.467 29.6088 120.403 30.5262C120.339 31.4435 120.253 32.3182 120.147 33.1502C120.061 33.9822 119.955 34.6648 119.827 35.1982H114.323C114.515 34.3662 114.664 33.6302 114.771 32.9902C114.877 32.3502 114.963 31.6995 115.027 31.0382C115.091 30.3768 115.144 29.6195 115.187 28.7662H110.707C110.749 29.6195 110.803 30.3768 110.867 31.0382C110.931 31.6995 111.016 32.3502 111.123 32.9902C111.251 33.6302 111.4 34.3662 111.571 35.1982H106.067ZM110.867 25.1182H115.027C114.877 24.0302 114.621 22.9102 114.259 21.7582C113.896 20.6062 113.459 19.5928 112.947 18.7182C112.435 19.5928 111.997 20.6062 111.635 21.7582C111.272 22.8888 111.016 24.0088 110.867 25.1182ZM122.564 35.1982V17.4702H134.436C136.271 20.2008 137.188 23.0062 137.188 25.8862C137.188 27.0168 137.071 28.1688 136.836 29.3422C136.602 30.5155 136.282 31.6142 135.876 32.6382C135.471 33.6622 134.991 34.5155 134.436 35.1982H122.564ZM128.1 34.1742C129.295 33.3635 130.191 32.2328 130.788 30.7822C131.407 29.3102 131.716 27.7742 131.716 26.1742C131.716 25.0648 131.567 23.9982 131.268 22.9742C130.97 21.9502 130.554 21.0542 130.02 20.2862C129.487 19.5182 128.847 18.9848 128.1 18.6862V34.1742ZM138.185 35.1982C137.779 34.6862 137.577 33.9182 137.577 32.8942C137.577 31.8915 137.779 31.1235 138.185 30.5902H142.633C142.846 30.8248 142.995 31.1448 143.081 31.5502C143.187 31.9555 143.241 32.4142 143.241 32.9262C143.241 33.3955 143.187 33.8328 143.081 34.2382C142.995 34.6435 142.846 34.9635 142.633 35.1982H138.185ZM145.004 35.1982C144.897 34.6648 144.791 33.9822 144.684 33.1502C144.577 32.3182 144.492 31.4435 144.428 30.5262C144.364 29.6088 144.332 28.7875 144.332 28.0622C144.332 26.1208 144.545 24.2222 144.972 22.3662C145.399 20.5102 145.996 18.8782 146.764 17.4702H157.004C157.772 18.8782 158.369 20.5102 158.796 22.3662C159.223 24.2222 159.436 26.1208 159.436 28.0622C159.436 28.7875 159.404 29.6088 159.34 30.5262C159.276 31.4435 159.191 32.3182 159.084 33.1502C158.999 33.9822 158.892 34.6648 158.764 35.1982H153.26C153.452 34.3662 153.601 33.6302 153.708 32.9902C153.815 32.3502 153.9 31.6995 153.964 31.0382C154.028 30.3768 154.081 29.6195 154.124 28.7662H149.644C149.687 29.6195 149.74 30.3768 149.804 31.0382C149.868 31.6995 149.953 32.3502 150.06 32.9902C150.188 33.6302 150.337 34.3662 150.508 35.1982H145.004ZM149.804 25.1182H153.964C153.815 24.0302 153.559 22.9102 153.196 21.7582C152.833 20.6062 152.396 19.5928 151.884 18.7182C151.372 19.5928 150.935 20.6062 150.572 21.7582C150.209 22.8888 149.953 24.0088 149.804 25.1182ZM161.502 35.1982V17.4702H173.15C173.576 17.7475 173.96 18.1955 174.302 18.8142C174.664 19.4328 174.952 20.1262 175.166 20.8942C175.4 21.6622 175.518 22.4088 175.518 23.1342C175.518 24.3928 175.304 25.5982 174.878 26.7502C174.472 27.9022 173.896 28.8942 173.15 29.7262H167.038V35.1982H161.502ZM167.038 28.5102C169 27.2088 169.982 25.4488 169.982 23.2302C169.982 22.0995 169.704 21.1182 169.15 20.2862C168.616 19.4542 167.912 18.9208 167.038 18.6862V28.5102ZM177.096 35.1982V17.4702H188.744C189.17 17.7475 189.554 18.1955 189.896 18.8142C190.258 19.4328 190.546 20.1262 190.76 20.8942C190.994 21.6622 191.112 22.4088 191.112 23.1342C191.112 24.3928 190.898 25.5982 190.472 26.7502C190.066 27.9022 189.49 28.8942 188.744 29.7262H182.632V35.1982H177.096ZM182.632 28.5102C184.594 27.2088 185.576 25.4488 185.576 23.2302C185.576 22.0995 185.298 21.1182 184.744 20.2862C184.21 19.4542 183.506 18.9208 182.632 18.6862V28.5102Z" fill="#684735"/>
<path d="M0 44.2275H43.276V0.951511H0V44.2275Z" fill="white"/>
<line x1="178" y1="49.1982" x2="9" y2="49.1982" stroke="#826657" stroke-width="6"/>
</svg>
