<svg width="84" height="15" viewBox="0 0 84 15" fill="none" xmlns="http://www.w3.org/2000/svg">
<path d="M0.786967 14.4062V14.3675C1.49708 13.709 1.85213 12.7278 1.85213 11.4238V1.23692H5.20257V11.5593C5.20257 12.8375 4.72486 13.7865 3.76943 14.4062H0.786967ZM6.84646 11.966C6.78191 11.6433 6.71735 11.2301 6.6528 10.7266C6.58824 10.223 6.5366 9.69369 6.49786 9.13852C6.45913 8.58334 6.43976 8.08626 6.43976 7.64728C6.43976 6.47237 6.56888 5.32328 6.8271 4.20002C7.08532 3.07675 7.44683 2.08905 7.91163 1.23692H14.109C14.5738 2.08905 14.9353 3.07675 15.1935 4.20002C15.4517 5.32328 15.5808 6.47237 15.5808 7.64728C15.5808 8.08626 15.5615 8.58334 15.5227 9.13852C15.484 9.69369 15.4324 10.223 15.3678 10.7266C15.3162 11.2301 15.2516 11.6433 15.1741 11.966H11.8431C11.9593 11.4625 12.0496 11.0171 12.1142 10.6297C12.1788 10.2424 12.2304 9.84863 12.2691 9.44838C12.3079 9.04814 12.3401 8.58979 12.366 8.07335H9.65463C9.68045 8.58979 9.71273 9.04814 9.75146 9.44838C9.7902 9.84863 9.84184 10.2424 9.9064 10.6297C9.98386 11.0171 10.0742 11.4625 10.1775 11.966H6.84646ZM9.75146 5.86555H12.2691C12.1788 5.20708 12.0238 4.52925 11.8043 3.83205C11.5848 3.13485 11.3202 2.52157 11.0103 1.99221C10.7004 2.52157 10.4358 3.13485 10.2163 3.83205C9.99678 4.51634 9.84184 5.19417 9.75146 5.86555ZM17.6323 11.966L16.1992 1.23692H19.5496L20.9053 11.3076H20.9247C21.5186 10.6104 21.7897 9.54522 21.7381 8.11208L21.5057 1.23692H24.8367L25.0304 8.11208C25.0562 8.93839 25.0498 9.59686 25.011 10.0875C24.9852 10.5781 24.9013 10.9848 24.7593 11.3076L24.7786 11.3269C25.3596 10.8751 25.7534 10.3715 25.96 9.81635C26.1666 9.24826 26.2957 8.52524 26.3473 7.64728L26.6766 1.23692H29.9689L29.6009 8.05398C29.5622 8.86738 29.4976 9.51294 29.4073 9.99065C29.3169 10.4554 29.1878 10.8299 29.0199 11.1139C28.8521 11.398 28.6197 11.682 28.3227 11.966H17.6323ZM31.3007 11.966C31.2361 11.6433 31.1716 11.2301 31.107 10.7266C31.0424 10.223 30.9908 9.69369 30.9521 9.13852C30.9133 8.58334 30.894 8.08626 30.894 7.64728C30.894 6.47237 31.0231 5.32328 31.2813 4.20002C31.5395 3.07675 31.901 2.08905 32.3658 1.23692H38.5632C39.028 2.08905 39.3895 3.07675 39.6477 4.20002C39.9059 5.32328 40.035 6.47237 40.035 7.64728C40.035 8.08626 40.0157 8.58334 39.9769 9.13852C39.9382 9.69369 39.8866 10.223 39.822 10.7266C39.7704 11.2301 39.7058 11.6433 39.6283 11.966H36.2973C36.4135 11.4625 36.5038 11.0171 36.5684 10.6297C36.633 10.2424 36.6846 9.84863 36.7233 9.44838C36.7621 9.04814 36.7943 8.58979 36.8202 8.07335H34.1088C34.1347 8.58979 34.1669 9.04814 34.2057 9.44838C34.2444 9.84863 34.296 10.2424 34.3606 10.6297C34.4381 11.0171 34.5284 11.4625 34.6317 11.966H31.3007ZM34.2057 5.86555H36.7233C36.633 5.20708 36.478 4.52925 36.2585 3.83205C36.039 3.13485 35.7744 2.52157 35.4645 1.99221C35.1546 2.52157 34.89 3.13485 34.6705 3.83205C34.451 4.51634 34.296 5.19417 34.2057 5.86555ZM41.2852 11.966V1.23692H48.4703C49.5806 2.88954 50.1358 4.58735 50.1358 6.33035C50.1358 7.01464 50.0648 7.71184 49.9228 8.42195C49.7808 9.13206 49.5871 9.79698 49.3418 10.4167C49.0965 11.0364 48.806 11.5529 48.4703 11.966H41.2852ZM44.6357 11.3463C45.3587 10.8557 45.901 10.1714 46.2625 9.29345C46.6369 8.40258 46.8241 7.47298 46.8241 6.50465C46.8241 5.83327 46.7337 5.18772 46.553 4.56798C46.3722 3.94825 46.1205 3.40598 45.7977 2.94118C45.4749 2.47638 45.0876 2.1536 44.6357 1.97285V11.3463ZM50.7389 11.966C50.4936 11.6562 50.3709 11.1914 50.3709 10.5716C50.3709 9.96483 50.4936 9.50003 50.7389 9.17725H53.4309C53.56 9.31927 53.6503 9.51294 53.702 9.75825C53.7665 10.0036 53.7988 10.2811 53.7988 10.591C53.7988 10.8751 53.7665 11.1397 53.702 11.385C53.6503 11.6304 53.56 11.824 53.4309 11.966H50.7389Z" fill="#684735"/>
<path d="M54.866 11.966C54.8014 11.6433 54.7369 11.2301 54.6723 10.7266C54.6077 10.223 54.5561 9.69369 54.5174 9.13852C54.4786 8.58334 54.4593 8.08626 54.4593 7.64728C54.4593 6.47237 54.5884 5.32328 54.8466 4.20002C55.1048 3.07675 55.4663 2.08905 55.9311 1.23692H62.1285C62.5933 2.08905 62.9548 3.07675 63.213 4.20002C63.4712 5.32328 63.6003 6.47237 63.6003 7.64728C63.6003 8.08626 63.581 8.58334 63.5422 9.13852C63.5035 9.69369 63.4519 10.223 63.3873 10.7266C63.3357 11.2301 63.2711 11.6433 63.1936 11.966H59.8626C59.9788 11.4625 60.0691 11.0171 60.1337 10.6297C60.1983 10.2424 60.2499 9.84863 60.2886 9.44838C60.3274 9.04814 60.3596 8.58979 60.3855 8.07335H57.6741C57.7 8.58979 57.7322 9.04814 57.771 9.44838C57.8097 9.84863 57.8613 10.2424 57.9259 10.6297C58.0034 11.0171 58.0937 11.4625 58.197 11.966H54.866ZM57.771 5.86555H60.2886C60.1983 5.20708 60.0433 4.52925 59.8238 3.83205C59.6043 3.13485 59.3397 2.52157 59.0298 1.99221C58.7199 2.52157 58.4553 3.13485 58.2358 3.83205C58.0163 4.51634 57.8613 5.19417 57.771 5.86555ZM64.8505 11.966V1.23692H71.9C72.1582 1.40476 72.3906 1.67589 72.5972 2.05032C72.8167 2.42474 72.991 2.84435 73.1201 3.30915C73.2621 3.77395 73.3331 4.22584 73.3331 4.66482C73.3331 5.42657 73.204 6.15605 72.9458 6.85325C72.7005 7.55045 72.3519 8.15082 71.9 8.65435H68.201V11.966H64.8505ZM68.201 7.91842C69.3888 7.13084 69.9827 6.06567 69.9827 4.72292C69.9827 4.03863 69.8149 3.44472 69.4792 2.94118C69.1564 2.43765 68.7303 2.11487 68.201 1.97285V7.91842ZM74.288 11.966V1.23692H81.3375C81.5957 1.40476 81.8281 1.67589 82.0347 2.05032C82.2542 2.42474 82.4285 2.84435 82.5576 3.30915C82.6996 3.77395 82.7706 4.22584 82.7706 4.66482C82.7706 5.42657 82.6415 6.15605 82.3833 6.85325C82.138 7.55045 81.7894 8.15082 81.3375 8.65435H77.6384V11.966H74.288ZM77.6384 7.91842C78.8263 7.13084 79.4202 6.06567 79.4202 4.72292C79.4202 4.03863 79.2523 3.44472 78.9166 2.94118C78.5939 2.43765 78.1678 2.11487 77.6384 1.97285V7.91842Z" fill="white"/>
</svg>
