<svg width="36" height="37" viewBox="0 0 36 37" fill="none" xmlns="http://www.w3.org/2000/svg">
<rect y="0.129395" width="36" height="36" rx="6" fill="white"/>
<path d="M17.3755 24.7748C16.8715 24.7748 16.3489 24.7141 15.8075 24.5928C15.2662 24.4808 14.7622 24.2801 14.2955 23.9908C13.8289 23.7108 13.4462 23.3281 13.1475 22.8428C12.8582 22.3668 12.7135 21.7648 12.7135 21.0368C12.7135 20.3648 12.8489 19.7348 13.1195 19.1468C13.3902 18.5588 13.7729 18.0268 14.2675 17.5508C14.7715 17.0748 15.3642 16.6735 16.0455 16.3468C16.7269 16.0201 17.4782 15.7868 18.2995 15.6468L18.5935 16.7388C17.9122 16.8601 17.2822 17.0421 16.7035 17.2848C16.1249 17.5275 15.6209 17.8261 15.1915 18.1808C14.7715 18.5261 14.4449 18.9228 14.2115 19.3708C13.9782 19.8281 13.8615 20.3275 13.8615 20.8688C13.8615 21.3075 13.9362 21.6855 14.0855 22.0028C14.2349 22.3201 14.4309 22.5815 14.6735 22.7868C14.9255 23.0015 15.2055 23.1695 15.5135 23.2908C15.8215 23.4121 16.1342 23.4961 16.4515 23.5428C16.7782 23.5988 17.0862 23.6268 17.3755 23.6268C17.8702 23.6268 18.3742 23.5801 18.8875 23.4868C19.4009 23.4028 19.8675 23.2721 20.2875 23.0948L20.6515 24.0748C20.4275 24.1868 20.1289 24.2941 19.7555 24.3968C19.3915 24.5088 18.9995 24.5975 18.5795 24.6628C18.1595 24.7375 17.7582 24.7748 17.3755 24.7748ZM15.0655 17.3548C14.6922 17.2615 14.3562 17.0935 14.0575 16.8508C13.7589 16.6081 13.5209 16.3188 13.3435 15.9828C13.1755 15.6468 13.0915 15.2921 13.0915 14.9188C13.0915 14.3308 13.2269 13.8408 13.4975 13.4488C13.7775 13.0568 14.1322 12.7628 14.5615 12.5668C15.0002 12.3708 15.4622 12.2728 15.9475 12.2728C16.1622 12.2728 16.3909 12.2915 16.6335 12.3288C16.8762 12.3661 17.1095 12.4221 17.3335 12.4968L17.0955 13.5748C16.9089 13.5281 16.7129 13.4908 16.5075 13.4628C16.3022 13.4348 16.1155 13.4208 15.9475 13.4208C15.6115 13.4208 15.3129 13.4815 15.0515 13.6028C14.7902 13.7241 14.5849 13.8921 14.4355 14.1068C14.2862 14.3121 14.2115 14.5548 14.2115 14.8348C14.2115 15.0868 14.2815 15.3155 14.4215 15.5208C14.5709 15.7168 14.7575 15.8895 14.9815 16.0388C15.2055 16.1788 15.4342 16.2861 15.6675 16.3608C15.9009 16.4261 16.1062 16.4541 16.2835 16.4448L15.0655 17.3548Z" fill="#684735"/>
<path d="M9 12.2588C7.75 13.9288 7 16.0088 7 18.2588C7 23.7788 11.48 28.2588 17 28.2588C22.52 28.2588 27 23.7788 27 18.2588C27 12.7388 22.52 8.25879 17 8.25879C15.57 8.25879 14.2 8.55876 12.97 9.10876" stroke="#684735" stroke-width="1.5" stroke-linecap="round" stroke-linejoin="round"/>
</svg>
