<svg width="24" height="24" viewBox="0 0 24 24" fill="none" xmlns="http://www.w3.org/2000/svg">
<g opacity="0.8">
<path d="M10.6292 13.05L11.5683 13.7792C11.6908 13.9017 11.965 13.96 12.1458 13.96H13.3008C13.6625 13.96 14.0592 13.6858 14.1525 13.3241L14.8817 11.1133C15.0333 10.6875 14.7592 10.3258 14.3042 10.3258H13.0908C12.91 10.3258 12.7583 10.1741 12.7875 9.96414L12.9392 8.99579C12.9975 8.72162 12.8166 8.41828 12.5425 8.33078C12.2975 8.23745 11.9941 8.35994 11.8775 8.54077L10.635 10.39" stroke="#684735" stroke-width="0.9" stroke-miterlimit="10"/>
<path d="M9.08325 13.05V10.0808C9.08325 9.65497 9.26408 9.50331 9.68991 9.50331H9.99325C10.4191 9.50331 10.5999 9.65497 10.5999 10.0808V13.05C10.5999 13.4759 10.4191 13.6275 9.99325 13.6275H9.68991C9.26408 13.6275 9.08325 13.4759 9.08325 13.05Z" stroke="#684735" stroke-width="0.9" stroke-linecap="round" stroke-linejoin="round"/>
<path d="M6.75 7.89915C6.75 6.94249 7.53167 6.16667 8.5 6.16667H15.5C16.4683 6.16667 17.25 6.94249 17.25 7.89915V14.2633C17.25 15.22 16.4683 15.9958 15.5 15.9958H15.0567C14.59 15.9958 14.1467 16.1767 13.82 16.5033L12.8225 17.4892C12.3675 17.9384 11.6267 17.9384 11.1717 17.4892L10.1742 16.5033C9.8475 16.1767 9.39833 15.9958 8.9375 15.9958H8.5C7.53167 15.9958 6.75 15.22 6.75 14.2633V10.2908" stroke="#684735" stroke-width="0.9" stroke-miterlimit="10" stroke-linecap="round" stroke-linejoin="round"/>
</g>
</svg>
