<svg width="41" height="26" viewBox="0 0 41 26" fill="none" xmlns="http://www.w3.org/2000/svg">
<path d="M25.798 22.7219H15.0272V3.58545H25.798V22.7219Z" fill="#FF5F00"/>
<path d="M15.7172 13.1524C15.7172 9.27047 17.5557 5.81257 20.4187 3.58416C18.3251 1.95464 15.6828 0.982031 12.8112 0.982031C6.01295 0.982031 0.502197 6.4308 0.502197 13.1524C0.502197 19.874 6.01295 25.3228 12.8112 25.3228C15.6828 25.3228 18.3251 24.3501 20.4187 22.7206C17.5557 20.4922 15.7172 17.0343 15.7172 13.1524Z" fill="#EB001B"/>
<path d="M40.3245 13.1524C40.3245 19.874 34.8138 25.3228 28.0155 25.3228C25.1439 25.3228 22.5016 24.3501 20.4072 22.7206C23.271 20.4922 25.1095 17.0343 25.1095 13.1524C25.1095 9.27047 23.271 5.81257 20.4072 3.58416C22.5016 1.95464 25.1439 0.982031 28.0155 0.982031C34.8138 0.982031 40.3245 6.4308 40.3245 13.1524Z" fill="#F79E1B"/>
</svg>
