<svg width="24" height="25" viewBox="0 0 24 25" fill="none" xmlns="http://www.w3.org/2000/svg">
<path d="M12 7.05664V10.3866" stroke="#684735" stroke-width="1.5" stroke-miterlimit="10" stroke-linecap="round"/>
<path d="M20.59 15.7862C21.32 17.0062 20.74 18.5862 19.39 19.0362C14.61 20.6262 9.44002 20.6262 4.66002 19.0362C3.22002 18.5562 2.67002 17.0962 3.46002 15.7862L4.73002 13.6662C5.08002 13.0862 5.36002 12.0562 5.36002 11.3862V9.28621C5.36002 5.59621 8.34002 2.61621 12.02 2.61621C15.68 2.61621 18.68 5.61621 18.68 9.27621V11.3762C18.68 11.5562 18.7 11.7562 18.73 11.9662" stroke="#684735" stroke-width="1.5" stroke-miterlimit="10" stroke-linecap="round"/>
<path d="M15.33 19.4365C15.33 21.2665 13.83 22.7665 12 22.7665C11.09 22.7665 10.25 22.3865 9.65004 21.7865C9.05004 21.1865 8.67004 20.3465 8.67004 19.4365" stroke="#684735" stroke-width="1.5" stroke-miterlimit="10"/>
</svg>
