<svg width="48" height="49" viewBox="0 0 48 49" fill="none" xmlns="http://www.w3.org/2000/svg">
<rect y="0.870605" width="48" height="48" rx="24" fill="white" fill-opacity="0.25"/>
<path d="M24 19.3105V22.6405" stroke="white" stroke-width="1.5" stroke-miterlimit="10" stroke-linecap="round"/>
<path d="M32.59 28.0406C33.32 29.2606 32.74 30.8406 31.39 31.2906C26.61 32.8806 21.44 32.8806 16.66 31.2906C15.22 30.8106 14.67 29.3506 15.46 28.0406L16.73 25.9206C17.08 25.3406 17.36 24.3106 17.36 23.6406V21.5406C17.36 17.8506 20.34 14.8706 24.02 14.8706C27.68 14.8706 30.68 17.8706 30.68 21.5306V23.6306C30.68 23.8106 30.7 24.0106 30.73 24.2206" stroke="white" stroke-width="1.5" stroke-miterlimit="10" stroke-linecap="round"/>
<path d="M27.33 31.6906C27.33 33.5206 25.83 35.0206 24 35.0206C23.09 35.0206 22.25 34.6406 21.65 34.0406C21.05 33.4406 20.67 32.6006 20.67 31.6906" stroke="white" stroke-width="1.5" stroke-miterlimit="10"/>
</svg>
