<svg width="25" height="24" viewBox="0 0 25 24" fill="none" xmlns="http://www.w3.org/2000/svg">
<path d="M18.5001 7.16C18.4401 7.15 18.3701 7.15 18.3101 7.16C16.9301 7.11 15.8301 5.98 15.8301 4.58C15.8301 3.15 16.9801 2 18.4101 2C19.8401 2 20.9901 3.16 20.9901 4.58C20.9801 5.98 19.8801 7.11 18.5001 7.16Z" stroke="#737476" stroke-width="1.5" stroke-linecap="round" stroke-linejoin="round"/>
<path d="M17.4702 14.4402C18.8402 14.6702 20.3502 14.4302 21.4102 13.7202C22.8202 12.7802 22.8202 11.2402 21.4102 10.3002C20.3402 9.59016 18.8102 9.35016 17.4402 9.59016" stroke="#737476" stroke-width="1.5" stroke-linecap="round" stroke-linejoin="round"/>
<path d="M6.46998 7.16C6.52998 7.15 6.59998 7.15 6.65998 7.16C8.03998 7.11 9.13998 5.98 9.13998 4.58C9.13998 3.15 7.98998 2 6.55998 2C5.12998 2 3.97998 3.16 3.97998 4.58C3.98998 5.98 5.08998 7.11 6.46998 7.16Z" stroke="#737476" stroke-width="1.5" stroke-linecap="round" stroke-linejoin="round"/>
<path d="M7.49994 14.4402C6.12994 14.6702 4.61994 14.4302 3.55994 13.7202C2.14994 12.7802 2.14994 11.2402 3.55994 10.3002C4.62994 9.59016 6.15994 9.35016 7.52994 9.59016" stroke="#737476" stroke-width="1.5" stroke-linecap="round" stroke-linejoin="round"/>
<path d="M12.5001 14.6297C12.4401 14.6197 12.3701 14.6197 12.3101 14.6297C10.9301 14.5797 9.83008 13.4497 9.83008 12.0497C9.83008 10.6197 10.9801 9.46973 12.4101 9.46973C13.8401 9.46973 14.9901 10.6297 14.9901 12.0497C14.9801 13.4497 13.8801 14.5897 12.5001 14.6297Z" stroke="#737476" stroke-width="1.5" stroke-linecap="round" stroke-linejoin="round"/>
<path d="M15.41 17.7794C13.82 16.7194 11.19 16.7194 9.58997 17.7794C8.17997 18.7194 8.17997 20.2594 9.58997 21.1994C11.19 22.2694 13.81 22.2694 15.41 21.1994" stroke="#737476" stroke-width="1.5" stroke-linecap="round" stroke-linejoin="round"/>
</svg>
