<svg width="25" height="25" viewBox="0 0 25 25" fill="none" xmlns="http://www.w3.org/2000/svg">
<path d="M16.1762 4.30277C16.6562 5.01277 16.9362 5.86277 16.9362 6.78277C16.9262 9.18277 15.0362 11.1328 12.6562 11.2128C12.5562 11.2028 12.4362 11.2028 12.3262 11.2128C10.1162 11.1428 8.32618 9.45277 8.08618 7.29277C7.79618 4.72277 9.90618 2.34277 12.4862 2.34277" stroke="#737476" stroke-width="1.5" stroke-linecap="round" stroke-linejoin="round"/>
<path d="M7.48618 14.9028C5.06618 16.5228 5.06618 19.1628 7.48618 20.7728C10.2362 22.6128 14.7462 22.6128 17.4962 20.7728C19.9162 19.1528 19.9162 16.5128 17.4962 14.9028C14.7662 13.0728 10.2562 13.0728 7.48618 14.9028Z" stroke="#737476" stroke-width="1.5" stroke-linecap="round" stroke-linejoin="round"/>
</svg>
