<svg width="28" height="27" viewBox="0 0 28 27" fill="none" xmlns="http://www.w3.org/2000/svg">
<path d="M3.90101 11.5769C3.43053 11.5769 3.05852 11.2049 3.05852 10.7344V8.20694C3.05852 5.2418 5.47658 2.82373 8.44172 2.82373H10.9692C11.4397 2.82373 11.8117 3.19574 11.8117 3.66622C11.8117 4.13671 11.4397 4.50872 10.9692 4.50872H8.44172C6.39567 4.50872 4.7435 6.17182 4.7435 8.20694V10.7344C4.7435 11.2049 4.36055 11.5769 3.90101 11.5769Z" fill="#E7E7E7"/>
<path d="M24.099 11.5769C23.6394 11.5769 23.2565 11.2049 23.2565 10.7344V8.20694C23.2565 6.16088 21.5934 4.50872 19.5583 4.50872H17.0308C16.5603 4.50872 16.1883 4.12577 16.1883 3.66622C16.1883 3.20668 16.5603 2.82373 17.0308 2.82373H19.5583C22.5234 2.82373 24.9415 5.2418 24.9415 8.20694V10.7344C24.9415 11.2049 24.5695 11.5769 24.099 11.5769Z" fill="#E7E7E7"/>
<path d="M19.5583 24.7068H18.0374C17.5779 24.7068 17.1949 24.3348 17.1949 23.8643C17.1949 23.4048 17.5669 23.0218 18.0374 23.0218H19.5583C21.6043 23.0218 23.2565 21.3587 23.2565 19.3236V17.8137C23.2565 17.3541 23.6285 16.9712 24.099 16.9712C24.5585 16.9712 24.9415 17.3432 24.9415 17.8137V19.3236C24.9415 22.2887 22.5234 24.7068 19.5583 24.7068Z" fill="#E7E7E7"/>
<path d="M10.9692 24.7068H8.44172C5.47658 24.7068 3.05852 22.2887 3.05852 19.3236V16.7961C3.05852 16.3256 3.43053 15.9536 3.90101 15.9536C4.37149 15.9536 4.7435 16.3256 4.7435 16.7961V19.3236C4.7435 21.3696 6.40661 23.0218 8.44172 23.0218H10.9692C11.4287 23.0218 11.8117 23.3938 11.8117 23.8643C11.8117 24.3348 11.4397 24.7068 10.9692 24.7068Z" fill="#E7E7E7"/>
<path d="M21.0682 12.9229H19.5801H8.41983H6.93179C6.4613 12.9229 6.08929 13.3058 6.08929 13.7653C6.08929 14.2249 6.4613 14.6078 6.93179 14.6078H8.41983H19.5801H21.0682C21.5387 14.6078 21.9107 14.2249 21.9107 13.7653C21.9107 13.3058 21.5387 12.9229 21.0682 12.9229Z" fill="#E7E7E7"/>
<path d="M8.41985 15.888V16.249C8.41985 18.0653 9.886 19.5315 11.7023 19.5315H16.2977C18.114 19.5315 19.5802 18.0653 19.5802 16.249V15.888C19.5802 15.7567 19.4817 15.6582 19.3504 15.6582H8.64962C8.51832 15.6582 8.41985 15.7567 8.41985 15.888Z" fill="#E7E7E7"/>
<path d="M8.41985 11.6425V11.2815C8.41985 9.46518 9.886 7.99902 11.7023 7.99902H16.2977C18.114 7.99902 19.5802 9.46518 19.5802 11.2815V11.6425C19.5802 11.7738 19.4817 11.8723 19.3504 11.8723H8.64962C8.51832 11.8723 8.41985 11.7738 8.41985 11.6425Z" fill="#E7E7E7"/>
</svg>
