<svg width="25" height="24" viewBox="0 0 25 24" fill="none" xmlns="http://www.w3.org/2000/svg">
<g clip-path="url(#clip0_1499_242)">
<path d="M24.7089 19.2947L23.6699 18.6005C24.5178 16.4823 24.9648 14.3518 24.9648 12.4205C24.9648 9.21522 23.7167 6.20177 21.4501 3.93527C19.1836 1.66877 16.1702 0.420532 12.9648 0.420532C9.75953 0.420532 6.74608 1.66872 4.47958 3.93527C2.21308 6.20181 0.964844 9.21522 0.964844 12.4205C0.964844 14.3518 1.41189 16.4823 2.25972 18.6005L1.22083 19.2947C1.06675 19.3977 1.00848 19.5961 1.08245 19.766C1.6435 21.055 2.3253 22.2825 3.10886 23.4145C3.22787 23.5863 3.46267 23.6311 3.63658 23.515L8.3072 20.3942C8.39294 20.3369 8.45191 20.2475 8.47084 20.1462C8.48978 20.0449 8.46714 19.9402 8.40794 19.8557C6.83331 17.612 5.81594 14.6935 5.81594 12.4206C5.81594 8.47867 9.02294 5.27163 12.9649 5.27163C16.9068 5.27163 20.1138 8.47862 20.1138 12.4206C20.1138 14.6935 19.0965 17.612 17.5219 19.8557C17.4627 19.9402 17.44 20.0448 17.459 20.1462C17.478 20.2475 17.5369 20.3369 17.6226 20.3942L18.7632 21.1563C18.7898 21.1996 18.8253 21.2382 18.8695 21.2692C18.9186 21.3036 18.9731 21.3247 19.0287 21.3336L22.2933 23.515C22.3585 23.5585 22.4326 23.5795 22.5057 23.5795C22.6272 23.5795 22.7467 23.5218 22.821 23.4145C23.6045 22.2826 24.2863 21.055 24.8474 19.766C24.9212 19.5961 24.8629 19.3977 24.7089 19.2947ZM22.4025 22.6667L19.6427 20.8227C21.275 18.3608 22.3082 15.3592 22.4036 12.8035H23.05C23.2615 12.8035 23.4329 12.632 23.4329 12.4205C23.4329 12.2089 23.2615 12.0375 23.05 12.0375H22.4032C22.3104 9.72119 21.3798 7.61706 19.9066 6.02041L20.3669 5.56009C20.5165 5.41047 20.5165 5.16803 20.3669 5.01845C20.2173 4.86892 19.9749 4.86892 19.8253 5.01845L19.365 5.47877C17.7683 4.00553 15.6641 3.07497 13.3478 2.98216V2.33542C13.3478 2.12388 13.1764 1.95245 12.9648 1.95245C12.7533 1.95245 12.5819 2.12388 12.5819 2.33542V2.98216C10.2656 3.07497 8.16142 4.00558 6.56477 5.47877L6.1045 5.01845C5.95487 4.86892 5.71244 4.86892 5.56286 5.01845C5.41328 5.16808 5.41328 5.41052 5.56286 5.56009L6.02313 6.02041C4.54989 7.61711 3.61933 9.72119 3.52652 12.0375H2.87973C2.66819 12.0375 2.49677 12.2089 2.49677 12.4205C2.49677 12.632 2.66819 12.8035 2.87973 12.8035H3.52553C3.60667 15.0098 4.37791 17.5428 5.6702 19.8194C5.77459 20.0034 6.00845 20.0679 6.19234 19.9634C6.37633 19.859 6.44078 19.6252 6.33634 19.4413C5.03205 17.1436 4.28402 14.5846 4.28402 12.4205C4.28402 7.63389 8.17825 3.7397 12.9648 3.7397C17.7514 3.7397 21.6457 7.63394 21.6457 12.4205C21.6457 14.9117 20.6405 17.9323 19.0059 20.3972L18.3693 19.972C19.9021 17.6545 20.8797 14.7314 20.8797 12.4205C20.8797 8.05628 17.3291 4.50564 12.9648 4.50564C8.60045 4.50564 5.04995 8.05623 5.04995 12.4205C5.04995 14.7314 6.02753 17.6545 7.5603 19.972L3.52717 22.6667C2.91803 21.7503 2.37709 20.7726 1.91453 19.7524L2.94545 19.0636C3.0977 18.9618 3.15667 18.7665 3.08603 18.5974C2.21214 16.5064 1.73078 14.3127 1.73078 12.4205C1.73078 6.22605 6.77031 1.18647 12.9648 1.18647C19.1594 1.18647 24.1989 6.226 24.1989 12.4205C24.1989 14.3127 23.7176 16.5064 22.8437 18.5974C22.773 18.7665 22.8319 18.9618 22.9842 19.0636L24.0152 19.7524C23.5526 20.7726 23.0117 21.7503 22.4025 22.6667Z" fill="#9C9D9E"/>
</g>
<defs>
<clipPath id="clip0_1499_242">
<rect width="24" height="24" fill="white" transform="translate(0.964844)"/>
</clipPath>
</defs>
</svg>
