<svg width="24" height="20" viewBox="0 0 24 20" fill="none" xmlns="http://www.w3.org/2000/svg">
<path d="M2.20319 19.3623C2.06771 19.3622 1.93316 19.3401 1.80476 19.2969C1.55631 19.2162 1.34011 19.0583 1.18764 18.8462C1.03517 18.6341 0.954403 18.3789 0.957097 18.1177V17.6807C0.960609 14.5654 2.19968 11.5788 4.40247 9.37604C6.60526 7.17325 9.59188 5.93418 12.7071 5.93066H12.9571V1.88766C12.9571 1.64044 13.0304 1.39877 13.1677 1.19321C13.3051 0.987644 13.5003 0.827431 13.7287 0.732828C13.9571 0.638224 14.2084 0.613481 14.4509 0.661728C14.6934 0.709974 14.9161 0.829043 15.0909 1.00387L22.5303 8.44336C22.6929 8.60582 22.8218 8.79871 22.9098 9.01101C22.9978 9.22331 23.043 9.45086 23.043 9.68066C23.043 9.91047 22.9978 10.138 22.9098 10.3503C22.8218 10.5626 22.6929 10.7555 22.5303 10.918L15.0909 18.3574C14.9161 18.5323 14.6934 18.6513 14.4509 18.6996C14.2084 18.7478 13.9571 18.7231 13.7287 18.6285C13.5003 18.5339 13.3051 18.3737 13.1677 18.1681C13.0304 17.9626 12.9571 17.7209 12.9571 17.4737V13.2852C11.5606 13.0845 7.53181 13.1294 3.2061 18.8613C3.08918 19.0168 2.93772 19.143 2.76367 19.23C2.58962 19.3169 2.39774 19.3622 2.20319 19.3623ZM12.7071 7.43066C10.0423 7.43365 7.48311 8.47313 5.57098 10.3292C3.65885 12.1853 2.54372 14.7124 2.46149 17.376C8.23981 10.1758 13.7086 11.8901 13.9444 11.9692C14.0937 12.019 14.2235 12.1145 14.3156 12.2422C14.4076 12.3699 14.4571 12.5233 14.4571 12.6807V16.8701L21.4698 9.85742C21.5165 9.81044 21.5427 9.74689 21.5427 9.68066C21.5427 9.61443 21.5165 9.55089 21.4698 9.5039L14.4571 2.49121V6.68066C14.457 6.87956 14.378 7.0703 14.2374 7.21094C14.0967 7.35158 13.906 7.43061 13.7071 7.43066H12.7071Z" fill="#684735"/>
</svg>
