<svg width="24" height="24" viewBox="0 0 24 24" fill="none" xmlns="http://www.w3.org/2000/svg">
<path d="M21.8414 9.19852C21.3388 6.29739 19.3883 4.8168 18.7347 4.39455C19.2354 2.69731 18.405 0.523728 18.368 0.427722C18.3376 0.350124 18.2756 0.289236 18.1975 0.260632C18.1184 0.231462 18.0321 0.238259 17.959 0.277908C16.2368 1.21304 15.4147 2.4716 15.1479 2.95361C14.5388 2.88479 12.707 2.77208 10.3363 3.51803C7.7096 4.34499 3.90448 6.43418 0.694374 11.6916C0.610829 11.8283 0.654159 12.0068 0.790663 12.0903C0.927733 12.1739 1.10587 12.1305 1.18941 11.994C2.94464 9.11924 4.88351 7.21056 6.74727 5.94085V8.26783C4.87417 10.2809 2.61768 13.5965 0.669169 18.9792C0.614794 19.1299 0.692675 19.2961 0.843056 19.3508C0.875907 19.3627 0.909042 19.3681 0.941893 19.3681C1.06056 19.3681 1.17185 19.2947 1.21462 19.1769C2.97458 14.3147 5.00628 11.1736 6.74727 9.1719V17.9571C6.74727 20.982 9.20803 23.4428 12.2329 23.4428C13.4581 23.4428 14.5868 23.0342 15.5008 22.3528C15.7041 22.9312 15.8154 23.2424 15.8183 23.2505C15.8608 23.3692 15.9723 23.4428 16.0913 23.4428C16.1238 23.4428 16.1567 23.4374 16.189 23.4258C16.3399 23.3717 16.4184 23.2057 16.3643 23.0551C16.3611 23.0461 16.223 22.6599 15.9762 21.956C17.0455 20.9544 17.7186 19.5346 17.7186 17.9571V14.9014C18.3018 15.0228 18.7804 15.0562 19.0403 15.0648C19.6466 16.589 20.5832 16.9124 21.2685 16.9124C21.4104 16.9124 21.5412 16.8985 21.6565 16.8787C22.2603 16.7742 22.8355 16.4287 23.2759 15.9062C24.3532 14.627 23.7307 13.478 23.0102 12.1475C22.5568 11.3109 22.0431 10.3628 21.8414 9.19852ZM21.2699 9.29764C21.4362 10.2565 21.7883 11.0606 22.1564 11.7771L19.7578 13.9254C19.0105 13.3463 16.1613 11.0533 14.138 8.28521C14.6201 7.75196 16.346 6.05129 19.1567 5.4615C19.9215 6.15531 20.9408 7.39806 21.2699 9.29764ZM17.9366 0.959578C18.1496 1.63785 18.5611 3.24758 18.1148 4.41947C18.0629 4.55541 18.1201 4.70862 18.2482 4.77772C18.2537 4.7807 18.3849 4.85498 18.585 4.99749C16.0029 5.66199 14.3886 7.15896 13.7944 7.79831C13.271 7.02855 12.8229 6.22946 12.5085 5.425C13.536 5.17599 14.9376 5.04724 14.9525 5.04592C15.1054 5.03204 15.221 4.90176 15.2165 4.74827C15.2072 4.44246 15.4335 3.74952 15.5797 3.38054C15.6156 3.30422 16.2586 1.97693 17.9366 0.959578ZM14.9121 3.51674C14.8176 3.79097 14.7004 4.17167 14.6552 4.49282C14.1853 4.54273 13.1403 4.67019 12.3142 4.87675C12.1922 4.48427 12.1093 4.09241 12.0645 3.70334C13.389 3.4555 14.4085 3.47768 14.9121 3.51674ZM12.2329 22.8628C9.52805 22.8628 7.32727 20.662 7.32727 17.9571V8.53574C9.31271 6.45227 10.7962 5.88919 10.8243 5.8791C10.9755 5.82614 11.0551 5.66075 11.0018 5.50952C10.9489 5.35857 10.7838 5.27814 10.6323 5.33195C10.5189 5.37169 9.16452 5.87731 7.32727 7.67489V5.56404C8.83073 4.63614 10.2653 4.11057 11.4915 3.82335C11.7535 5.95176 13.1576 8.36833 15.6736 11.0141C17.1982 12.6174 18.7107 13.8443 19.3186 14.3188L19.1306 14.4872C18.4902 14.4781 14.9219 14.2851 13.6453 11.019C13.5869 10.8697 13.4193 10.7958 13.2694 10.8544C13.1202 10.9128 13.0466 11.081 13.1049 11.2302C13.2586 11.6233 13.4432 11.9743 13.6489 12.291C13.1969 15.1531 13.7684 17.3029 13.7982 17.4103C14.4355 19.2914 14.9494 20.7761 15.3 21.7797C14.4592 22.4557 13.3933 22.8628 12.2329 22.8628ZM17.1386 17.9571C17.1386 19.2748 16.6136 20.4704 15.7652 21.3527C15.4195 20.3614 14.9384 18.9691 14.3527 17.2406C14.3472 17.2211 13.8648 15.4038 14.1455 12.9441C15.0361 13.9478 16.1668 14.4788 17.1386 14.7579V17.9571ZM22.8324 15.5324C22.4798 15.9507 22.0269 16.2259 21.5574 16.3072C20.6898 16.4583 20.0267 15.9699 19.5837 14.8601L22.4362 12.3052C22.4575 12.3446 22.4791 12.385 22.5002 12.4239C23.2589 13.8246 23.6183 14.5989 22.8324 15.5324Z" fill="#737476" stroke="#737476" stroke-width="0.3"/>
</svg>
