<svg width="29" height="29" viewBox="0 0 29 29" fill="none" xmlns="http://www.w3.org/2000/svg">
<g clip-path="url(#clip0_409_6434)">
<path d="M25.4549 19.5302C25.3925 19.4632 25.306 19.4238 25.2145 19.4206C25.1231 19.4174 25.0341 19.4507 24.9671 19.513C22.6705 21.6534 22.4495 24.7898 22.4413 24.9222C22.4355 25.0135 22.4663 25.1033 22.5268 25.1719C22.5873 25.2406 22.6726 25.2824 22.7639 25.2881C22.81 25.2961 22.8574 25.2936 22.9024 25.2809C22.9475 25.2681 22.9891 25.2455 23.0243 25.2145C23.0594 25.1836 23.0872 25.1452 23.1055 25.1021C23.1239 25.0591 23.1324 25.0124 23.1304 24.9657C23.1323 24.9359 23.3468 21.9668 25.4377 20.0181C25.4709 19.9872 25.4977 19.95 25.5165 19.9088C25.5353 19.8675 25.5458 19.823 25.5474 19.7777C25.549 19.7324 25.5416 19.6872 25.5258 19.6447C25.5099 19.6022 25.4858 19.5633 25.4549 19.5302Z" fill="#684735"/>
<path d="M5.17925 23.2178C5.36992 23.2178 5.52449 23.0633 5.52449 22.8726C5.52449 22.6819 5.36992 22.5273 5.17925 22.5273C4.98858 22.5273 4.83401 22.6819 4.83401 22.8726C4.83401 23.0633 4.98858 23.2178 5.17925 23.2178Z" fill="#684735"/>
<path d="M11.195 14.2834C11.1778 14.2415 11.1525 14.2034 11.1205 14.1712C11.0886 14.139 11.0506 14.1135 11.0088 14.096C10.9669 14.0785 10.9221 14.0695 10.8767 14.0693C10.8314 14.0692 10.7865 14.078 10.7446 14.0952L10.0863 14.3656C9.98615 14.407 9.89711 14.4714 9.82632 14.5534C9.75553 14.6355 9.70498 14.733 9.6787 14.8382L9.50491 15.5399C9.49401 15.5839 9.49188 15.6296 9.49865 15.6745C9.50542 15.7193 9.52095 15.7623 9.54436 15.8012C9.56777 15.84 9.5986 15.8738 9.63508 15.9007C9.67157 15.9277 9.713 15.9471 9.75701 15.958C9.80102 15.9689 9.84674 15.971 9.89157 15.9643C9.9364 15.9575 9.97946 15.942 10.0183 15.9186C10.0571 15.8952 10.0909 15.8643 10.1179 15.8278C10.1448 15.7914 10.1642 15.7499 10.1751 15.7059L10.2436 15.4293C10.3141 15.4548 10.391 15.4564 10.4625 15.434C10.5341 15.4115 10.5963 15.3663 10.6396 15.3052C10.683 15.244 10.7052 15.1704 10.7027 15.0954C10.7003 15.0205 10.6734 14.9485 10.6261 14.8903L11.0068 14.7339C11.0915 14.6991 11.1589 14.6321 11.1942 14.5476C11.2295 14.4632 11.2298 14.3681 11.195 14.2834Z" fill="#684735"/>
<path d="M22.272 13.9456C21.539 13.4816 20.8698 12.9237 20.2814 12.2862C20.2204 12.2179 20.1348 12.1766 20.0434 12.1714C19.952 12.1663 19.8623 12.1976 19.794 12.2586C19.7257 12.3196 19.6844 12.4052 19.6793 12.4967C19.6741 12.5881 19.7055 12.6778 19.7665 12.7461C20.4004 13.4373 21.1243 14.0403 21.9187 14.5389C21.9977 14.5846 22.0914 14.5977 22.1798 14.5752C22.2683 14.5528 22.3444 14.4966 22.3921 14.4188C22.4389 14.3401 22.4525 14.2461 22.43 14.1573C22.4075 14.0686 22.3507 13.9924 22.272 13.9456Z" fill="#684735"/>
<path d="M0.345238 26.3252C0.535908 26.3252 0.690476 26.1707 0.690476 25.98C0.690476 25.7893 0.535908 25.6348 0.345238 25.6348C0.154568 25.6348 0 25.7893 0 25.98C0 26.1707 0.154568 26.3252 0.345238 26.3252Z" fill="#36383B"/>
<path d="M1.8988 25.6348H1.38094C1.28938 25.6348 1.20157 25.6711 1.13682 25.7359C1.07208 25.8006 1.03571 25.8884 1.03571 25.98C1.03571 26.0716 1.07208 26.1594 1.13682 26.2241C1.20157 26.2889 1.28938 26.3252 1.38094 26.3252H1.8988C1.99036 26.3252 2.07818 26.2889 2.14292 26.2241C2.20767 26.1594 2.24404 26.0716 2.24404 25.98C2.24404 25.8884 2.20767 25.8006 2.14292 25.7359C2.07818 25.6711 1.99036 25.6348 1.8988 25.6348Z" fill="#36383B"/>
<path d="M27.619 25.6348H27.1012C27.0096 25.6348 26.9218 25.6711 26.8571 25.7359C26.7923 25.8006 26.756 25.8884 26.756 25.98C26.756 26.0716 26.7923 26.1594 26.8571 26.2241C26.9218 26.2889 27.0096 26.3252 27.1012 26.3252H27.619C27.7106 26.3252 27.7984 26.2889 27.8632 26.2241C27.9279 26.1594 27.9643 26.0716 27.9643 25.98C27.9643 25.8884 27.9279 25.8006 27.8632 25.7359C27.7984 25.6711 27.7106 25.6348 27.619 25.6348Z" fill="#36383B"/>
<path d="M28.6547 26.3252C28.8454 26.3252 29 26.1707 29 25.98C29 25.7893 28.8454 25.6348 28.6547 25.6348C28.4641 25.6348 28.3095 25.7893 28.3095 25.98C28.3095 26.1707 28.4641 26.3252 28.6547 26.3252Z" fill="#36383B"/>
<path d="M20.3956 27.0156H18.9615C18.8747 27.0226 18.7938 27.062 18.7347 27.1259C18.6756 27.1899 18.6429 27.2738 18.6429 27.3609C18.6429 27.4479 18.6756 27.5318 18.7347 27.5958C18.7938 27.6598 18.8747 27.6991 18.9615 27.7061H20.3956C20.4824 27.6991 20.5634 27.6598 20.6224 27.5958C20.6815 27.5318 20.7143 27.4479 20.7143 27.3609C20.7143 27.2738 20.6815 27.1899 20.6224 27.1259C20.5634 27.062 20.4824 27.0226 20.3956 27.0156Z" fill="#684735"/>
<path d="M10.0385 27.0156H8.60439C8.5176 27.0226 8.43661 27.062 8.37755 27.1259C8.3185 27.1899 8.28571 27.2738 8.28571 27.3609C8.28571 27.4479 8.3185 27.5318 8.37755 27.5958C8.43661 27.6598 8.5176 27.6991 8.60439 27.7061H10.0385C10.1253 27.6991 10.2062 27.6598 10.2653 27.5958C10.3244 27.5318 10.3571 27.4479 10.3571 27.3609C10.3571 27.2738 10.3244 27.1899 10.2653 27.1259C10.2062 27.062 10.1253 27.0226 10.0385 27.0156Z" fill="#684735"/>
<path d="M17.9524 27.0156H11.0476C10.9561 27.0156 10.8683 27.052 10.8035 27.1167C10.7388 27.1815 10.7024 27.2693 10.7024 27.3609C10.7024 27.4524 10.7388 27.5402 10.8035 27.605C10.8683 27.6697 10.9561 27.7061 11.0476 27.7061H13.7992V28.0513H12.4286C12.337 28.0513 12.2492 28.0877 12.1845 28.1525C12.1197 28.2172 12.0833 28.305 12.0833 28.3966C12.0833 28.4881 12.1197 28.576 12.1845 28.6407C12.2492 28.7054 12.337 28.7418 12.4286 28.7418H16.7441C16.8356 28.7418 16.9234 28.7054 16.9882 28.6407C17.0529 28.576 17.0893 28.4881 17.0893 28.3966C17.0893 28.305 17.0529 28.2172 16.9882 28.1525C16.9234 28.0877 16.8356 28.0513 16.7441 28.0513H15.2008V27.7061H17.9524C18.044 27.7061 18.1318 27.6697 18.1965 27.605C18.2613 27.5402 18.2976 27.4524 18.2976 27.3609C18.2976 27.2693 18.2613 27.1815 18.1965 27.1167C18.1318 27.052 18.044 27.0156 17.9524 27.0156Z" fill="#684735"/>
<path d="M26.0173 25.6347H19.6578C19.5962 24.9166 19.4315 24.2111 19.1689 23.5399C19.3275 22.3748 19.7751 21.268 20.4709 20.3202C20.4984 20.2841 20.5185 20.243 20.5301 20.1992C20.5417 20.1554 20.5446 20.1097 20.5385 20.0648C20.5325 20.0199 20.5176 19.9766 20.4949 19.9374C20.4721 19.8982 20.4418 19.8639 20.4058 19.8364C20.3698 19.8089 20.3287 19.7888 20.2848 19.7771C20.241 19.7655 20.1953 19.7627 20.1504 19.7687C20.1055 19.7748 20.0622 19.7896 20.023 19.8124C19.9838 19.8351 19.9495 19.8654 19.922 19.9014C19.3443 20.6802 18.9215 21.5626 18.6765 22.5007C18.2118 21.6706 17.6137 20.9226 16.9062 20.2866C17.0421 19.9496 17.1245 19.5934 17.1503 19.2309C17.1531 19.1395 17.1197 19.0507 17.0571 18.984C16.9946 18.9173 16.9082 18.878 16.8168 18.875C16.7254 18.8719 16.6365 18.9052 16.5697 18.9676C16.5028 19.0299 16.4634 19.1163 16.4601 19.2077C16.3963 19.9397 16.059 20.6208 15.5155 21.1153C14.6442 21.8824 12.4086 22.2063 11.454 22.3446C11.2356 22.3645 11.0194 22.404 10.8081 22.4627C8.79808 23.2462 8.58703 24.9919 8.57911 25.0659C8.57423 25.1115 8.57704 25.1572 8.57456 25.2028C8.55708 25.5255 8.25088 25.6279 7.97361 25.6333H6.1057C6.52652 25.2934 6.89355 24.8919 7.19433 24.4423C7.24374 24.3657 7.26083 24.2726 7.24187 24.1835C7.22291 24.0943 7.16944 24.0162 7.09313 23.9663C7.01683 23.9164 6.92388 23.8987 6.83457 23.9171C6.74527 23.9355 6.66686 23.9884 6.61647 24.0644C6.33175 24.4864 5.98105 24.8598 5.57779 25.1704C5.55566 25.1177 5.50797 24.9817 5.50528 24.975C5.40486 24.7452 5.23681 24.5516 5.02352 24.4198C5.01036 24.4118 4.99668 24.4048 4.98255 24.3987C4.97648 24.396 4.37453 24.1231 4.19416 23.6337C4.15182 23.507 4.13673 23.3727 4.14986 23.2397C4.16299 23.1067 4.20405 22.978 4.27035 22.862C4.27322 22.8559 4.27608 22.8497 4.27878 22.8434C4.28283 22.8337 4.69296 21.8632 5.32323 21.2792C5.33794 21.2656 5.35142 21.2507 5.36352 21.2347C5.42066 21.1596 6.76785 19.3817 7.42004 18.2815C7.46488 18.2096 8.52297 16.5112 8.78324 15.6974C8.79322 15.6655 8.79872 15.6324 8.79959 15.599C8.86449 14.844 9.22165 14.1441 9.79499 13.6485C9.80809 13.6373 9.82032 13.625 9.83157 13.6119C9.97317 13.4475 11.2229 11.9846 11.5285 11.2408C11.5651 11.1424 12.2974 9.23956 14.245 8.41823C14.1121 8.76325 13.9745 9.06942 13.8458 9.32871C13.8052 9.41075 13.7987 9.50559 13.828 9.59236C13.8572 9.67914 13.9197 9.75074 14.0018 9.79142C14.0838 9.83211 14.1786 9.83853 14.2654 9.80929C14.3522 9.78005 14.4238 9.71753 14.4645 9.63549C15.1031 8.35159 15.4897 6.95715 15.6032 5.52768C15.607 5.47661 15.6156 5.3371 15.617 5.3157C16.5028 6.68677 17.2347 8.25304 16.7782 10.3722C16.7685 10.4225 16.7698 10.4742 16.7822 10.5239C16.7946 10.5736 16.8177 10.62 16.8499 10.6598C16.8821 10.6996 16.9226 10.7319 16.9685 10.7544C17.0145 10.7769 17.0649 10.7891 17.116 10.7901C17.1949 10.79 17.2714 10.7629 17.3327 10.7133C17.3941 10.6637 17.4366 10.5946 17.4532 10.5175C17.6071 9.82327 17.6454 9.10841 17.5667 8.4017C18.271 8.72707 18.9266 9.14881 19.5148 9.6548C19.7125 9.84181 22.3094 12.2782 23.7436 12.6103C23.7878 12.6207 23.8336 12.6222 23.8784 12.6148C23.9232 12.6074 23.9661 12.5913 24.0046 12.5673C24.0432 12.5433 24.0766 12.5119 24.103 12.475C24.1294 12.4381 24.1482 12.3963 24.1585 12.3521C24.1687 12.3079 24.1701 12.2621 24.1627 12.2173C24.1552 12.1725 24.1389 12.1297 24.1149 12.0912C24.0908 12.0527 24.0594 12.0194 24.0224 11.993C23.9854 11.9667 23.9436 11.9479 23.8994 11.9378C23.4852 11.8419 22.9081 11.4995 22.3151 11.078C22.3151 11.078 22.7717 11.1353 22.7863 11.1353C22.8741 11.1352 22.9585 11.1017 23.0224 11.0416C23.0863 10.9814 23.1249 10.8993 23.1304 10.8117C23.1359 10.7241 23.1079 10.6378 23.052 10.5701C22.9961 10.5025 22.9165 10.4587 22.8295 10.4476L21.232 10.2438C21.0969 10.1327 20.9674 10.0239 20.8434 9.91748C20.8434 9.91748 21.3558 9.95223 21.3638 9.95223C21.4532 9.95214 21.5392 9.91731 21.6035 9.85508C21.6678 9.79285 21.7054 9.7081 21.7084 9.61867C21.7114 9.52925 21.6796 9.44215 21.6197 9.37573C21.5597 9.30931 21.4763 9.26877 21.387 9.26264L20.0053 9.16827C19.998 9.16142 19.6994 8.91511 19.5702 8.81627C19.5702 8.81627 20.0495 8.85228 20.0582 8.85228C20.1475 8.8522 20.2332 8.81753 20.2975 8.75558C20.3617 8.69362 20.3995 8.60918 20.4028 8.51999C20.4062 8.43079 20.3748 8.34377 20.3154 8.27718C20.2559 8.2106 20.173 8.16963 20.084 8.16287L18.3803 8.03365C18.0723 7.86307 17.7511 7.71749 17.4198 7.59832C17.1481 6.60737 16.7093 5.67003 16.1223 4.82663C15.9148 4.51023 15.6788 4.15247 15.3314 4.24475C14.9828 4.33788 14.9596 4.73384 14.9243 5.33323C14.8777 6.09713 14.7443 6.85324 14.5268 7.58699C14.0578 7.7251 13.6105 7.9282 13.1978 8.19038C12.6018 7.56134 12.1173 6.83534 11.7652 6.04354C11.5597 5.61766 11.3665 5.21514 10.9953 5.27119C10.6294 5.32648 10.5625 5.77156 10.5033 6.16423C10.36 7.11465 10.1009 8.84195 10.9665 10.7957C10.9182 10.9033 10.8914 10.9734 10.8854 10.9897C10.6695 11.5149 9.70158 12.7027 9.32468 13.1425C8.62697 13.751 8.19224 14.6063 8.11183 15.5286C7.85341 16.2803 6.84471 17.8993 6.83021 17.9225C6.23331 18.9294 4.993 20.5797 4.831 20.7942C4.33209 21.3088 3.93054 21.9096 3.64579 22.5673C3.53941 22.766 3.47562 22.9847 3.4585 23.2094C3.44137 23.4341 3.47129 23.6599 3.54634 23.8724C3.80561 24.5762 4.52909 24.9484 4.68063 25.0197C4.75738 25.0726 4.81972 25.1437 4.86201 25.2267C4.90828 25.3674 4.96631 25.5038 5.03546 25.6347H2.98261C2.93349 25.6283 2.88357 25.6325 2.83618 25.6469C2.7888 25.6613 2.74503 25.6856 2.7078 25.7183C2.67058 25.751 2.64076 25.7912 2.62032 25.8364C2.59989 25.8815 2.58932 25.9304 2.58932 25.98C2.58932 26.0295 2.59989 26.0785 2.62032 26.1236C2.64076 26.1687 2.67058 26.209 2.7078 26.2416C2.74503 26.2743 2.7888 26.2987 2.83618 26.3131C2.88357 26.3275 2.93349 26.3316 2.98261 26.3252H26.0173C26.0665 26.3316 26.1164 26.3275 26.1638 26.3131C26.2112 26.2987 26.2549 26.2743 26.2921 26.2416C26.3294 26.209 26.3592 26.1687 26.3796 26.1236C26.4001 26.0785 26.4106 26.0295 26.4106 25.98C26.4106 25.9304 26.4001 25.8815 26.3796 25.8364C26.3592 25.7912 26.3294 25.751 26.2921 25.7183C26.2549 25.6856 26.2112 25.6613 26.1638 25.6469C26.1164 25.6325 26.0665 25.6283 26.0173 25.6347ZM11.1675 6.39347C11.5342 7.20372 12.0295 7.94932 12.6343 8.60139C12.1519 9.00622 11.734 9.48214 11.3949 10.0128C10.9591 8.74668 11.0035 7.53951 11.1675 6.39347ZM9.26888 25.1168C9.29855 24.9314 9.55073 23.6938 11.0496 23.1092C11.1039 23.093 11.3323 23.0599 11.5531 23.0279C12.6546 22.8683 14.9464 22.5362 15.9716 21.6334C16.2059 21.4264 16.4102 21.1879 16.5787 20.9246C17.1654 21.4795 18.652 23.179 18.9509 25.6347H9.16906C9.23906 25.4712 9.2731 25.2946 9.26888 25.1168Z" fill="#36383B"/>
<path d="M21.6679 6.9112C21.7703 6.9112 21.8704 6.88083 21.9556 6.82393C22.0407 6.76703 22.1071 6.68615 22.1463 6.59152C22.1855 6.49689 22.1958 6.39277 22.1758 6.29232C22.1558 6.19186 22.1065 6.09959 22.0341 6.02717C21.9616 5.95474 21.8694 5.90542 21.7689 5.88544C21.6685 5.86546 21.5643 5.87571 21.4697 5.91491C21.3751 5.9541 21.2942 6.02048 21.2373 6.10564C21.1804 6.1908 21.15 6.29092 21.15 6.39335C21.1502 6.53064 21.2048 6.66227 21.3019 6.75935C21.399 6.85643 21.5306 6.91105 21.6679 6.9112ZM21.6679 6.13442C21.7191 6.13442 21.7692 6.1496 21.8117 6.17805C21.8543 6.20651 21.8875 6.24694 21.9071 6.29426C21.9267 6.34157 21.9318 6.39363 21.9218 6.44386C21.9118 6.49409 21.8872 6.54022 21.851 6.57644C21.8148 6.61265 21.7686 6.63731 21.7184 6.6473C21.6682 6.65729 21.6161 6.65216 21.5688 6.63256C21.5215 6.61297 21.481 6.57978 21.4526 6.5372C21.4241 6.49462 21.409 6.44456 21.409 6.39335C21.409 6.32469 21.4363 6.25887 21.4849 6.21033C21.5334 6.16179 21.5992 6.13448 21.6679 6.13442Z" fill="#36383B"/>
<path d="M27.4514 4.15381C27.3831 4.15381 27.3164 4.17406 27.2596 4.21199C27.2028 4.24993 27.1586 4.30385 27.1325 4.36693C27.1063 4.43001 27.0995 4.49943 27.1128 4.5664C27.1261 4.63337 27.159 4.69488 27.2073 4.74317C27.2556 4.79145 27.3171 4.82433 27.3841 4.83765C27.451 4.85097 27.5204 4.84414 27.5835 4.81801C27.6466 4.79187 27.7005 4.74762 27.7385 4.69085C27.7764 4.63408 27.7966 4.56733 27.7966 4.49905C27.7965 4.40752 27.7601 4.31976 27.6954 4.25504C27.6307 4.19032 27.5429 4.15391 27.4514 4.15381ZM27.4514 4.67167C27.4173 4.67167 27.3839 4.66154 27.3555 4.64257C27.3271 4.62361 27.305 4.59665 27.2919 4.56511C27.2789 4.53356 27.2754 4.49886 27.2821 4.46537C27.2888 4.43189 27.3052 4.40113 27.3293 4.37699C27.3535 4.35285 27.3842 4.3364 27.4177 4.32974C27.4512 4.32308 27.4859 4.3265 27.5175 4.33957C27.549 4.35263 27.576 4.37476 27.5949 4.40314C27.6139 4.43153 27.624 4.46491 27.624 4.49905C27.624 4.54481 27.6058 4.58869 27.5734 4.62106C27.5411 4.65342 27.4972 4.67162 27.4514 4.67167Z" fill="#36383B"/>
<path d="M5.99899 10.4028C5.9307 10.4028 5.86396 10.4231 5.80718 10.461C5.75041 10.499 5.70616 10.5529 5.68003 10.616C5.6539 10.679 5.64706 10.7485 5.66038 10.8154C5.6737 10.8824 5.70658 10.9439 5.75487 10.9922C5.80315 11.0405 5.86466 11.0734 5.93163 11.0867C5.9986 11.1 6.06802 11.0932 6.1311 11.067C6.19419 11.0409 6.24811 10.9966 6.28604 10.9399C6.32398 10.8831 6.34422 10.8164 6.34422 10.7481C6.34412 10.6565 6.30771 10.5688 6.24299 10.5041C6.17827 10.4393 6.09052 10.4029 5.99899 10.4028ZM5.99899 10.9207C5.96485 10.9207 5.93147 10.9106 5.90308 10.8916C5.8747 10.8726 5.85257 10.8457 5.83951 10.8141C5.82644 10.7826 5.82302 10.7479 5.82968 10.7144C5.83634 10.6809 5.85278 10.6502 5.87693 10.626C5.90107 10.6019 5.93182 10.5854 5.96531 10.5788C5.99879 10.5721 6.0335 10.5755 6.06504 10.5886C6.09659 10.6017 6.12355 10.6238 6.14251 10.6522C6.16148 10.6806 6.1716 10.7139 6.1716 10.7481C6.17156 10.7938 6.15336 10.8377 6.121 10.8701C6.08863 10.9024 6.04475 10.9206 5.99899 10.9207Z" fill="#36383B"/>
<path d="M17.1713 2.51562C17.103 2.51562 17.0363 2.53587 16.9795 2.57381C16.9227 2.61174 16.8785 2.66566 16.8524 2.72875C16.8262 2.79183 16.8194 2.86125 16.8327 2.92822C16.846 2.99519 16.8789 3.0567 16.9272 3.10498C16.9755 3.15327 17.037 3.18615 17.104 3.19947C17.1709 3.21279 17.2404 3.20595 17.3034 3.17982C17.3665 3.15369 17.4204 3.10944 17.4584 3.05267C17.4963 2.99589 17.5166 2.92914 17.5166 2.86086C17.5165 2.76933 17.48 2.68158 17.4153 2.61686C17.3506 2.55214 17.2628 2.51573 17.1713 2.51562ZM17.1713 3.03348C17.1372 3.03348 17.1038 3.02336 17.0754 3.00439C17.047 2.98542 17.0249 2.95846 17.0118 2.92692C16.9988 2.89538 16.9954 2.86067 17.002 2.82719C17.0087 2.7937 17.0251 2.76294 17.0493 2.7388C17.0734 2.71466 17.1042 2.69822 17.1376 2.69156C17.1711 2.6849 17.2058 2.68832 17.2374 2.70138C17.2689 2.71445 17.2959 2.73657 17.3148 2.76496C17.3338 2.79335 17.3439 2.82672 17.3439 2.86086C17.3439 2.90663 17.3257 2.95051 17.2933 2.98287C17.261 3.01524 17.2171 3.03344 17.1713 3.03348Z" fill="#36383B"/>
<path d="M2.5002 3.20608C2.5002 3.1378 2.47995 3.07105 2.44202 3.01427C2.40408 2.9575 2.35016 2.91325 2.28708 2.88712C2.22399 2.86099 2.15458 2.85415 2.08761 2.86747C2.02064 2.88079 1.95912 2.91368 1.91084 2.96196C1.86256 3.01024 1.82968 3.07176 1.81636 3.13873C1.80304 3.2057 1.80987 3.27511 1.836 3.3382C1.86213 3.40128 1.90638 3.4552 1.96316 3.49313C2.01993 3.53107 2.08668 3.55132 2.15496 3.55132C2.24649 3.55121 2.33424 3.5148 2.39897 3.45008C2.46369 3.38536 2.50009 3.29761 2.5002 3.20608ZM1.98234 3.20608C1.98234 3.17194 1.99247 3.13856 2.01143 3.11018C2.0304 3.08179 2.05736 3.05966 2.0889 3.0466C2.12044 3.03353 2.15515 3.03012 2.18864 3.03678C2.22212 3.04344 2.25288 3.05988 2.27702 3.08402C2.30116 3.10816 2.3176 3.13892 2.32426 3.1724C2.33092 3.20589 2.32751 3.24059 2.31444 3.27214C2.30138 3.30368 2.27925 3.33064 2.25086 3.34961C2.22248 3.36857 2.1891 3.3787 2.15496 3.3787C2.10919 3.37865 2.06531 3.36045 2.03295 3.32809C2.00059 3.29573 1.98239 3.25185 1.98234 3.20608Z" fill="#36383B"/>
<path d="M1.39252 10.2854L1.64921 9.94779L1.48712 9.85596L1.32244 10.234H1.31692L1.14947 9.85855L0.984623 9.95314L1.23855 10.2827V10.288L0.841522 10.2368V10.4204L1.24131 10.3692V10.3745L0.984623 10.704L1.1386 10.8012L1.31433 10.4204H1.3195L1.48159 10.7985L1.6518 10.7013L1.39252 10.3771V10.3717L1.80025 10.4204V10.2368L1.39252 10.2908V10.2854Z" fill="#684735"/>
<path d="M8.50338 4.25322L8.35544 4.44293L8.44417 4.49903L8.54532 4.27963H8.54843L8.64164 4.4973L8.73969 4.44138L8.59038 4.25477V4.25167L8.82514 4.27963V4.17382L8.59038 4.20489V4.20178L8.73814 4.00741L8.64492 3.95459L8.54998 4.17226H8.54688L8.45055 3.95614L8.35544 4.01052L8.50182 4.2004V4.20351L8.2731 4.17382V4.27963L8.50338 4.25011V4.25322Z" fill="#684735"/>
<path d="M23.8304 1.26599V1.08578L23.4304 1.13877V1.13342L23.6821 0.802337L23.5231 0.712402L23.3616 1.08319H23.3562L23.1921 0.714819L23.0303 0.807688L23.2794 1.13083V1.13618L22.8898 1.08578V1.26599L23.282 1.21559V1.22094L23.0303 1.54408L23.1814 1.63954L23.3536 1.26599H23.3588L23.5178 1.63678L23.6847 1.54149L23.4304 1.22353V1.21818L23.8304 1.26599Z" fill="#684735"/>
<path d="M11.2817 0.621664L11.4988 0.336152L11.3616 0.258301L11.2223 0.578164H11.2177L11.0759 0.260545L10.9365 0.34064L11.1514 0.61942V0.624081L10.8153 0.580581V0.735938L11.1536 0.69261V0.697098L10.9365 0.975878L11.0668 1.05822L11.2154 0.735938H11.2199L11.357 1.0558L11.5009 0.973634L11.2817 0.699342V0.694854L11.6266 0.735938V0.580581L11.2817 0.626325V0.621664Z" fill="#684735"/>
</g>
<defs>
<clipPath id="clip0_409_6434">
<rect width="29" height="29" fill="white"/>
</clipPath>
</defs>
</svg>
