<svg width="24" height="25" viewBox="0 0 24 25" fill="none" xmlns="http://www.w3.org/2000/svg">
<path d="M21.32 12.4102C22.49 11.2402 22.11 10.0602 20.48 9.78024L17.93 9.36024C17.5 9.29024 16.99 8.91024 16.8 8.52024L15.39 5.70023C14.63 4.17023 13.38 4.17023 12.62 5.70023L11.21 8.52024C11.02 8.91024 10.51 9.28024 10.08 9.36024L7.53001 9.78024C5.90001 10.0502 5.52001 11.2302 6.69001 12.4102L8.68 14.4002C9.01 14.7302 9.20001 15.3802 9.09001 15.8502L8.52 18.3102C8.07 20.2502 9.11002 21.0102 10.82 19.9902L13.21 18.5702C13.64 18.3102 14.36 18.3102 14.79 18.5702L17.18 19.9902C18.89 21.0002 19.93 20.2502 19.48 18.3102L18.91 15.8502" stroke="#684735" stroke-width="1.5" stroke-linecap="round" stroke-linejoin="round"/>
<path d="M8 5.5H2" stroke="#684735" stroke-width="1.5" stroke-linecap="round" stroke-linejoin="round"/>
<path d="M5 19.5H2" stroke="#684735" stroke-width="1.5" stroke-linecap="round" stroke-linejoin="round"/>
<path d="M3 12.5H2" stroke="#684735" stroke-width="1.5" stroke-linecap="round" stroke-linejoin="round"/>
</svg>
