<svg width="42" height="41" viewBox="0 0 42 41" fill="none" xmlns="http://www.w3.org/2000/svg">
<path d="M19.3192 2.26842C19.8828 0.533838 22.3367 0.533838 22.9003 2.26842L26.4817 13.2908C26.7338 14.0665 27.4567 14.5917 28.2723 14.5917L39.8619 14.5917C41.6857 14.5917 42.4441 16.9256 40.9685 17.9976L31.5924 24.8098C30.9325 25.2892 30.6564 26.139 30.9084 26.9148L34.4898 37.9371C35.0534 39.6717 33.0681 41.1141 31.5926 40.0421L22.2164 33.2299C21.5565 32.7505 20.663 32.7505 20.0031 33.2299L10.6269 40.0421C9.1514 41.1141 7.1661 39.6717 7.7297 37.9371L11.3111 26.9148C11.5631 26.139 11.287 25.2892 10.6271 24.8098L1.25096 17.9976C-0.224565 16.9256 0.533753 14.5917 2.3576 14.5917L13.9472 14.5917C14.7628 14.5917 15.4857 14.0665 15.7378 13.2908L19.3192 2.26842Z" fill="#FEAF48"/>
</svg>
