<svg width="36" height="37" viewBox="0 0 36 37" fill="none" xmlns="http://www.w3.org/2000/svg">
<rect y="0.129395" width="36" height="36" rx="6" fill="white"/>
<path d="M15.39 12.1394C15.57 12.3894 15.7 12.6194 15.79 12.8394C15.88 13.0494 15.93 13.2594 15.93 13.4494C15.93 13.6894 15.86 13.9294 15.72 14.1594C15.59 14.3894 15.4 14.6294 15.16 14.8694L14.4 15.6594C14.29 15.7694 14.24 15.8994 14.24 16.0594C14.24 16.1394 14.25 16.2094 14.27 16.2894C14.3 16.3694 14.33 16.4294 14.35 16.4894C14.53 16.8194 14.84 17.2494 15.28 17.7694C15.73 18.2894 16.21 18.8194 16.73 19.3494C17.27 19.8794 17.79 20.3694 18.32 20.8194C18.84 21.2594 19.27 21.5594 19.61 21.7394C19.66 21.7594 19.72 21.7894 19.79 21.8194C19.87 21.8494 19.95 21.8594 20.04 21.8594C20.21 21.8594 20.34 21.7994 20.45 21.6894L21.21 20.9394C21.46 20.6894 21.7 20.4994 21.93 20.3794C22.16 20.2394 22.39 20.1694 22.64 20.1694C22.83 20.1694 23.03 20.2094 23.25 20.2994C23.47 20.3894 23.7 20.5194 23.95 20.6894L27.26 23.0394C27.52 23.2194 27.7 23.4294 27.81 23.6794C27.91 23.9294 27.97 24.1794 27.97 24.4594C27.97 24.8194 27.89 25.1894 27.72 25.5494C27.55 25.9094 27.33 26.2494 27.04 26.5694C26.55 27.1094 26.01 27.4994 25.4 27.7494C24.8 27.9994 24.15 28.1294 23.45 28.1294C22.43 28.1294 21.34 27.8894 20.19 27.3994C19.04 26.9094 17.89 26.2494 16.75 25.4194C15.6 24.5794 14.51 23.6494 13.47 22.6194C12.44 21.5794 11.51 20.4894 10.68 19.3494C9.86 18.2094 9.2 17.0694 8.72 15.9394C8.24 14.7994 8 13.7094 8 12.6694C8 11.9894 8.12 11.3394 8.36 10.7394C8.6 10.1294 8.98 9.56939 9.51 9.06939C10.15 8.43939 10.85 8.12939 11.59 8.12939C11.87 8.12939 12.15 8.18939 12.4 8.30939C12.66 8.42939 12.89 8.60939 13.07 8.86939" stroke="#684735" stroke-width="1.5" stroke-miterlimit="10" stroke-linecap="round" stroke-linejoin="round"/>
<path d="M24.5 15.1294C24.5 14.5294 24.03 13.6094 23.33 12.8594C22.69 12.1694 21.84 11.6294 21 11.6294" stroke="#684735" stroke-width="1.5" stroke-linecap="round" stroke-linejoin="round"/>
<path d="M23.01 8.41939C22.37 8.22939 21.7 8.12939 21 8.12939" stroke="#684735" stroke-width="1.5" stroke-linecap="round" stroke-linejoin="round"/>
<path d="M28 15.1294C28 12.7594 26.82 10.6594 25.02 9.39941" stroke="#684735" stroke-width="1.5" stroke-linecap="round" stroke-linejoin="round"/>
</svg>
