<svg width="24" height="25" viewBox="0 0 24 25" fill="none" xmlns="http://www.w3.org/2000/svg">
<path d="M21 6.72998C17.67 6.39998 14.32 6.22998 10.98 6.22998C9 6.22998 7.02 6.32998 5.04 6.52998L3 6.72998" stroke="#EC1C1C" stroke-width="1.5" stroke-linecap="round" stroke-linejoin="round"/>
<path d="M8.5 5.72L8.72 4.41C8.88 3.46 9 2.75 10.69 2.75H13.31C15 2.75 15.13 3.5 15.28 4.42L15.5 5.72" stroke="#EC1C1C" stroke-width="1.5" stroke-linecap="round" stroke-linejoin="round"/>
<path d="M15.21 22.7501H8.79002C6.00002 22.7501 5.91002 21.5301 5.80002 19.9601L5.15002 9.89014" stroke="#EC1C1C" stroke-width="1.5" stroke-linecap="round" stroke-linejoin="round"/>
<path d="M18.85 9.89014L18.2 19.9601" stroke="#EC1C1C" stroke-width="1.5" stroke-linecap="round" stroke-linejoin="round"/>
<path d="M10.33 17.25H13.66" stroke="#EC1C1C" stroke-width="1.5" stroke-linecap="round" stroke-linejoin="round"/>
<path d="M12.82 13.25H14.5" stroke="#EC1C1C" stroke-width="1.5" stroke-linecap="round" stroke-linejoin="round"/>
<path d="M9.5 13.25H10.33" stroke="#EC1C1C" stroke-width="1.5" stroke-linecap="round" stroke-linejoin="round"/>
</svg>
