<svg width="32" height="32" viewBox="0 0 32 32" fill="none" xmlns="http://www.w3.org/2000/svg">
<rect width="32" height="32" rx="12" fill="#C1B4AC"/>
<path d="M20.8889 22.3218H17.161V18.5548H18.393C18.7054 18.5548 18.89 18.1997 18.7054 17.9441L16.3089 14.628C16.1562 14.415 15.8402 14.415 15.6876 14.628L13.291 17.9441C13.1064 18.1997 13.2875 18.5548 13.6035 18.5548H14.8355V22.3218H10.6602C8.79618 22.2188 7.3121 20.4756 7.3121 18.5867C7.3121 17.2837 8.01864 16.1476 9.06601 15.5334C8.97015 15.2742 8.92045 14.9972 8.92045 14.7061C8.92045 13.3747 9.99623 12.2989 11.3276 12.2989C11.6152 12.2989 11.8922 12.3486 12.1513 12.4445C12.9218 10.8113 14.5834 9.67871 16.5148 9.67871C19.0143 9.68226 21.0736 11.5959 21.3079 14.0351C23.2287 14.3653 24.6879 16.144 24.6879 18.1571C24.6879 20.3087 23.0121 22.1727 20.8889 22.3218Z" fill="white"/>
</svg>
