<svg width="24" height="24" viewBox="0 0 24 24" fill="none" xmlns="http://www.w3.org/2000/svg">
<path d="M16.95 16.95C19.68 14.22 19.68 9.77999 16.95 7.04999" stroke="#737476" stroke-width="1.5" stroke-miterlimit="10" stroke-linecap="round" stroke-linejoin="round"/>
<path d="M7.05 7.04999C4.32 9.77999 4.32 14.22 7.05 16.95" stroke="#737476" stroke-width="1.5" stroke-miterlimit="10" stroke-linecap="round" stroke-linejoin="round"/>
<path d="M9.67001 13.63C9.67001 14.53 10.37 15.26 11.23 15.26H12.99C13.74 15.26 14.35 14.62 14.35 13.84C14.35 12.99 13.98 12.68 13.42 12.49L10.61 11.51C10.06 11.32 9.67999 11.01 9.67999 10.16C9.67999 9.37 10.29 8.73999 11.04 8.73999H12.8C13.66 8.73999 14.36 9.47 14.36 10.37" stroke="#737476" stroke-width="1.5" stroke-linecap="round" stroke-linejoin="round"/>
<path d="M12 7.79999V16.2" stroke="#737476" stroke-width="1.5" stroke-linecap="round" stroke-linejoin="round"/>
<path d="M4 6C2.75 7.67 2 9.75 2 12C2 17.52 6.48 22 12 22C17.52 22 22 17.52 22 12C22 6.48 17.52 2 12 2C10.57 2 9.2 2.3 7.97 2.85" stroke="#737476" stroke-width="1.5" stroke-linecap="round" stroke-linejoin="round"/>
</svg>
