<svg width="24" height="25" viewBox="0 0 24 25" fill="none" xmlns="http://www.w3.org/2000/svg">
<path d="M18 19.476H17.24C16.44 19.476 15.68 19.7859 15.12 20.3459L13.41 22.0359C12.63 22.8059 11.36 22.8059 10.58 22.0359L8.87003 20.3459C8.31003 19.7859 7.54003 19.476 6.75003 19.476H6.00003C4.34003 19.476 3.00003 18.146 3.00003 16.506V5.59595C3.00003 3.95595 4.34003 2.62598 6.00003 2.62598H18C19.66 2.62598 21 3.95595 21 5.59595V16.506C21 18.136 19.66 19.476 18 19.476Z" stroke="#684735" stroke-width="1.5" stroke-miterlimit="10" stroke-linecap="round" stroke-linejoin="round"/>
<path d="M12 10.616C13.2869 10.616 14.33 9.57283 14.33 8.28601C14.33 6.99919 13.2869 5.95605 12 5.95605C10.7132 5.95605 9.67001 6.99919 9.67001 8.28601C9.67001 9.57283 10.7132 10.616 12 10.616Z" stroke="#684735" stroke-width="1.5" stroke-linecap="round" stroke-linejoin="round"/>
<path d="M16 16.2756C16 14.4756 14.21 13.0156 12 13.0156C9.79003 13.0156 8.00003 14.4756 8.00003 16.2756" stroke="#684735" stroke-width="1.5" stroke-linecap="round" stroke-linejoin="round"/>
</svg>
