<svg width="24" height="25" viewBox="0 0 24 25" fill="none" xmlns="http://www.w3.org/2000/svg">
<path d="M15.02 3.62622C14.18 2.98622 13.14 2.61621 12 2.61621C9.24003 2.61621 7.00003 4.85621 7.00003 7.61621C7.00003 10.3762 9.24003 12.6162 12 12.6162C14.76 12.6162 17 10.3762 17 7.61621" stroke="#684735" stroke-width="1.5" stroke-linecap="round" stroke-linejoin="round"/>
<path d="M3.41003 22.6162C3.41003 18.7462 7.26003 15.6162 12 15.6162C12.96 15.6162 13.89 15.7462 14.76 15.9862" stroke="#684735" stroke-width="1.5" stroke-linecap="round" stroke-linejoin="round"/>
<path d="M22 18.6162C22 18.9362 21.96 19.2462 21.88 19.5462C21.79 19.9462 21.63 20.3362 21.42 20.6762C20.73 21.8362 19.46 22.6162 18 22.6162C16.97 22.6162 16.04 22.2262 15.34 21.5862C15.04 21.3262 14.78 21.0162 14.58 20.6762C14.21 20.0762 14 19.3662 14 18.6162C14 17.5362 14.43 16.5462 15.13 15.8262C15.86 15.0762 16.88 14.6162 18 14.6162C19.18 14.6162 20.25 15.1262 20.97 15.9462C21.61 16.6562 22 17.5962 22 18.6162Z" stroke="#684735" stroke-width="1.5" stroke-miterlimit="10" stroke-linecap="round" stroke-linejoin="round"/>
<path d="M19.49 18.5967H16.51" stroke="#684735" stroke-width="1.5" stroke-miterlimit="10" stroke-linecap="round" stroke-linejoin="round"/>
<path d="M18 17.1367V20.1267" stroke="#684735" stroke-width="1.5" stroke-miterlimit="10" stroke-linecap="round" stroke-linejoin="round"/>
</svg>
