<svg width="20" height="20" viewBox="0 0 20 20" fill="none" xmlns="http://www.w3.org/2000/svg">
<path d="M17.9362 7.81164C17.5202 5.4107 15.906 4.18539 15.3651 3.83593C15.7795 2.43133 15.0923 0.632497 15.0616 0.553044C15.0365 0.488825 14.9852 0.438435 14.9205 0.414763C14.8551 0.390622 14.7836 0.396247 14.7231 0.42906C13.2979 1.20297 12.6175 2.24453 12.3967 2.64343C11.8926 2.58648 10.3767 2.4932 8.41471 3.11054C6.24088 3.79492 3.09182 5.5239 0.435176 9.87484C0.366036 9.98804 0.401895 10.1357 0.514864 10.2048C0.628301 10.274 0.775723 10.2381 0.844864 10.1252C2.29746 7.74603 3.90205 6.16643 5.44447 5.11564V7.04141C3.89432 8.70736 2.02688 11.4514 0.414317 15.906C0.369317 16.0307 0.43377 16.1683 0.558223 16.2135C0.585411 16.2234 0.612833 16.2278 0.64002 16.2278C0.738223 16.2278 0.830333 16.1671 0.865723 16.0696C2.32225 12.0457 4.00365 9.44615 5.44447 7.78961V15.0602C5.44447 17.5635 7.48096 19.6 9.98432 19.6C10.9982 19.6 11.9323 19.2618 12.6888 18.698C12.857 19.1766 12.9491 19.4342 12.9515 19.4409C12.9867 19.5391 13.079 19.6 13.1774 19.6C13.2044 19.6 13.2316 19.5955 13.2583 19.5859C13.3832 19.5412 13.4481 19.4038 13.4034 19.2791C13.4007 19.2717 13.2865 18.9521 13.0822 18.3696C13.9672 17.5406 14.5242 16.3656 14.5242 15.0602V12.5312C15.0069 12.6317 15.4029 12.6594 15.618 12.6665C16.1198 13.9279 16.8949 14.1955 17.4621 14.1955C17.5795 14.1955 17.6878 14.1841 17.7831 14.1677C18.2828 14.0812 18.7588 13.7952 19.1233 13.3628C20.0149 12.3041 19.4997 11.3533 18.9035 10.2522C18.5282 9.55984 18.1031 8.77515 17.9362 7.81164ZM17.4632 7.89367C17.6008 8.68717 17.8922 9.35267 18.1969 9.94559L16.2118 11.7235C15.5933 11.2443 13.2354 9.34666 11.5609 7.05579C11.9599 6.61448 13.3883 5.20703 15.7144 4.71893C16.3473 5.29312 17.1909 6.3216 17.4632 7.89367ZM14.7046 0.9932C14.8809 1.55453 15.2214 2.88672 14.8521 3.85656C14.8092 3.96906 14.8565 4.09586 14.9624 4.15304C14.967 4.1555 15.0756 4.21698 15.2412 4.33492C13.1043 4.88485 11.7683 6.12373 11.2766 6.65284C10.8434 6.0158 10.4726 5.35448 10.2124 4.68872C11.0627 4.48265 12.2227 4.3761 12.235 4.375C12.3616 4.36351 12.4572 4.2557 12.4535 4.12867C12.4458 3.87559 12.6331 3.30212 12.7541 2.99676C12.7838 2.93359 13.3159 1.83515 14.7046 0.9932ZM12.2016 3.10947C12.1234 3.33642 12.0264 3.65148 11.9889 3.91726C11.6001 3.95857 10.7353 4.06405 10.0516 4.235C9.95065 3.91019 9.88198 3.58589 9.84492 3.2639C10.9411 3.05879 11.7848 3.07715 12.2016 3.10947ZM9.98432 19.12C7.7458 19.12 5.92447 17.2987 5.92447 15.0602V7.26313C7.56759 5.53887 8.79527 5.07288 8.81854 5.06453C8.94369 5.0207 9.00955 4.88383 8.96549 4.75867C8.92166 4.63375 8.78502 4.56718 8.65963 4.61172C8.56582 4.6446 7.44495 5.06305 5.92447 6.5507V4.80379C7.16871 4.03587 8.35597 3.60092 9.37069 3.36321C9.58758 5.12466 10.7496 7.12458 12.8317 9.31422C14.0935 10.641 15.3452 11.6564 15.8483 12.0491L15.6928 12.1884C15.1627 12.1809 12.2096 12.0212 11.1531 9.3182C11.1049 9.19468 10.9661 9.13351 10.8421 9.18203C10.7186 9.23031 10.6577 9.36953 10.706 9.49304C10.8332 9.81837 10.9859 10.1088 11.1562 10.371C10.7821 12.7396 11.2551 14.5187 11.2797 14.6076C11.8071 16.1644 12.2324 17.3931 12.5226 18.2236C11.8267 18.7831 10.9446 19.12 9.98432 19.12ZM14.0442 15.0602C14.0442 16.1507 13.6097 17.1401 12.9076 17.8702C12.6215 17.0499 12.2233 15.8976 11.7386 14.4672C11.7341 14.451 11.3348 12.9471 11.5672 10.9114C12.3042 11.7421 13.2399 12.1815 14.0442 12.4125V15.0602ZM18.7563 13.0534C18.4645 13.3996 18.0897 13.6274 17.7011 13.6947C16.9831 13.8198 16.4343 13.4156 16.0677 12.497L18.4284 10.3827C18.446 10.4153 18.4639 10.4487 18.4813 10.4809C19.1092 11.6402 19.4067 12.2809 18.7563 13.0534Z" fill="#684735" stroke="#684735" stroke-width="0.3"/>
</svg>
