<svg width="24" height="25" viewBox="0 0 24 25" fill="none" xmlns="http://www.w3.org/2000/svg">
<path d="M6.19 7.56C6.45 7.52 6.72 7.5 7 7.5H17C17.26 7.5 17.51 7.50999 17.75 7.54999C20.33 7.84999 22 9.76 22 12.5V17.5C22 20.5 20 22.5 17 22.5H7.63C7.94 22.24 8.21 21.92 8.42 21.56C8.79 20.96 9 20.25 9 19.5C9 17.29 7.21 15.5 5 15.5C3.8 15.5 2.73 16.03 2 16.86V12.5C2 11.63 2.17 10.84 2.48 10.17" stroke="#684735" stroke-width="1.5" stroke-linecap="round" stroke-linejoin="round"/>
<path d="M9 19.5C9 20.25 8.79 20.96 8.42 21.56C7.73 22.72 6.46 23.5 5 23.5C3.54 23.5 2.27 22.72 1.58 21.56C1.21 20.96 1 20.25 1 19.5C1 17.29 2.79 15.5 5 15.5C7.21 15.5 9 17.29 9 19.5Z" stroke="#684735" stroke-width="1.5" stroke-miterlimit="10" stroke-linecap="round" stroke-linejoin="round"/>
<path d="M3.44 19.4995L4.43 20.4895L6.56001 18.5195" stroke="#684735" stroke-width="1.5" stroke-linecap="round" stroke-linejoin="round"/>
<path d="M17.75 7.54997C17.51 7.50997 17.26 7.49998 17 7.49998H7C6.72 7.49998 6.45 7.51998 6.19 7.55998C6.33 7.27998 6.53 7.02001 6.77 6.78001L10.02 3.52C11.39 2.16 13.61 2.16 14.98 3.52L16.73 5.28996C17.37 5.91996 17.71 6.71997 17.75 7.54997Z" stroke="#684735" stroke-width="1.5" stroke-linecap="round" stroke-linejoin="round"/>
<path d="M22 13H19C17.9 13 17 13.9 17 15C17 16.1 17.9 17 19 17H22" stroke="#292D32" stroke-width="1.5" stroke-linecap="round" stroke-linejoin="round"/>
</svg>
